<svg width="147" height="415" viewBox="0 0 147 415" fill="none" xmlns="http://www.w3.org/2000/svg">
<path fill-rule="evenodd" clip-rule="evenodd" d="M134.961 -129.454C146.94 -187.904 117.074 -272.315 167.71 -303.377C221.183 -336.18 283.911 -271.272 343.645 -257.47C381.154 -248.803 417.364 -236.327 456.08 -236.744C505.769 -237.279 554.275 -271.712 602.331 -260.255C651.97 -248.421 702.994 -218.877 725.327 -172.552C747.836 -125.863 733.273 -67.6301 719.876 -16.4345C708.199 28.1918 654.622 57.5674 653.11 103.431C650.747 175.076 732.822 238.293 709.226 306.47C689.731 362.8 610.457 371.346 554.354 388.778C501.755 405.121 442.04 427.249 392.8 404.786C340.118 380.754 336.735 299.125 288.302 267.409C249.939 242.286 195.973 264.032 153.054 247.785C97.6372 226.807 12.5235 218.203 1.55015 158.86C-10.1697 95.4792 78.9746 54.9622 106.428 -4.36709C124.636 -43.7159 126.284 -87.1141 134.961 -129.454Z" fill="url(#paint0_linear_477_1114)" fill-opacity="0.1"/>
<defs>
<linearGradient id="paint0_linear_477_1114" x1="242.734" y1="62.0727" x2="68.6441" y2="174.604" gradientUnits="userSpaceOnUse">
<stop offset="0.365385" stop-color="#F9F9F9"/>
<stop offset="0.620192" stop-color="#F7DEC5"/>
<stop offset="0.735577" stop-color="#F4B372"/>
<stop offset="0.990385" stop-color="#F28C28"/>
</linearGradient>
</defs>
</svg>
