<svg width="261" height="848" viewBox="0 0 261 848" fill="none" xmlns="http://www.w3.org/2000/svg">
<path fill-rule="evenodd" clip-rule="evenodd" d="M-418.053 713.301C-451.356 641.39 -381.391 559.356 -390.354 480.301C-397.996 412.898 -478.801 363.098 -465.331 296.302C-451.926 229.83 -374.125 200.648 -324.542 153.94C-267.637 100.335 -229.804 9.75175 -152.512 1.62335C-75.4368 -6.48217 -8.86455 58.4665 42.8104 115.308C85.7425 162.532 75.1972 237.487 110.369 290.785C150.851 352.131 258.118 371.746 260.806 445.653C263.402 517.047 180.326 563.339 121.806 605.254C74.9822 638.791 9.1022 626.613 -38.0378 659.699C-110.709 710.705 -133.564 833.552 -221.045 845.892C-301.756 857.276 -384.061 786.702 -418.053 713.301Z" fill="url(#paint0_linear_477_1169)" fill-opacity="0.1"/>
<defs>
<linearGradient id="paint0_linear_477_1169" x1="-53.0613" y1="524.04" x2="150.585" y2="432.116" gradientUnits="userSpaceOnUse">
<stop offset="0.336538" stop-color="#F9F9F9"/>
<stop offset="0.653846" stop-color="#F6D9BD"/>
<stop offset="0.798077" stop-color="#F3B87F"/>
<stop offset="1" stop-color="#F09A46"/>
</linearGradient>
</defs>
</svg>
