<svg width="176" height="774" viewBox="0 0 176 774" fill="none" xmlns="http://www.w3.org/2000/svg">
<path fill-rule="evenodd" clip-rule="evenodd" d="M-28.2306 611.76C-54.9298 665.118 -47.9279 754.382 -104.878 771.281C-165.02 789.126 -208.81 710.195 -262.937 681.402C-296.924 663.322 -328.672 641.9 -366.176 632.283C-414.311 619.939 -470.076 640.644 -513.529 617.14C-558.414 592.861 -600.053 551.118 -609.635 500.591C-619.293 449.667 -590.154 397.188 -563.964 351.204C-541.134 311.121 -481.78 296.613 -468.449 252.704C-447.623 184.112 -510.54 101.806 -470.103 42.0584C-436.693 -7.30604 -357.908 4.95654 -299.205 2.63946C-244.168 0.46711 -180.76 -5.45156 -139.012 28.9899C-94.3455 65.8386 -112.204 145.561 -73.6313 188.732C-43.0777 222.928 14.6782 215.891 51.9296 242.692C100.029 277.298 180.015 307.638 175.256 367.8C170.172 432.054 73.5786 448.118 31.7051 498.32C3.93349 531.615 -8.89045 573.108 -28.2306 611.76Z" fill="url(#paint0_linear_477_1170)" fill-opacity="0.1"/>
<defs>
<linearGradient id="paint0_linear_477_1170" x1="-82.76" y1="398.866" x2="114.523" y2="335.226" gradientUnits="userSpaceOnUse">
<stop offset="0.365385" stop-color="#F9F9F9"/>
<stop offset="0.620192" stop-color="#F7DEC5"/>
<stop offset="0.735577" stop-color="#F4B372"/>
<stop offset="0.990385" stop-color="#F28C28"/>
</linearGradient>
</defs>
</svg>
