<svg width="408" height="391" viewBox="0 0 408 391" fill="none" xmlns="http://www.w3.org/2000/svg">
<g filter="url(#filter0_f_676_2627)">
<path fill-rule="evenodd" clip-rule="evenodd" d="M205.651 65.3304C225.099 62.0787 245.11 43.6467 262.827 52.2804C281.297 61.2805 277.31 90.9313 290.485 106.669C301.663 120.021 321.751 122.975 333.081 136.199C345.148 150.284 358.957 166.911 357.948 185.411C356.899 204.642 334.209 215.987 327.739 234.133C321.738 250.966 327.996 270.19 321.753 286.935C314.955 305.168 307.165 326.125 290 335.36C272.593 344.724 250.295 340.702 231.173 335.664C213.728 331.067 202.368 313.779 185.354 307.786C171.194 302.799 155.366 307.733 140.862 303.853C124.322 299.428 108.341 293.088 94.2306 283.409C78.0651 272.321 58.933 261.413 52.1954 243.035C45.5403 224.882 55.8952 205.041 58.4776 185.884C60.9838 167.292 55.8755 145.669 67.3267 130.788C79.2736 115.262 103.906 116.95 120.065 105.846C133.982 96.2833 140.181 77.4615 155.448 70.2341C170.769 62.9814 188.926 68.1269 205.651 65.3304Z" fill="#36A8D9" fill-opacity="0.2"/>
</g>
<defs>
<filter id="filter0_f_676_2627" x="0" y="0" width="408" height="391" filterUnits="userSpaceOnUse" color-interpolation-filters="sRGB">
<feFlood flood-opacity="0" result="BackgroundImageFix"/>
<feBlend mode="normal" in="SourceGraphic" in2="BackgroundImageFix" result="shape"/>
<feGaussianBlur stdDeviation="25" result="effect1_foregroundBlur_676_2627"/>
</filter>
</defs>
</svg>
