<svg width="141" height="166" viewBox="0 0 141 166" fill="none" xmlns="http://www.w3.org/2000/svg">
<path d="M69.1904 22.7075C69.0862 22.3294 68.8336 21.9995 68.4967 21.8004C68.2602 21.6637 68.0075 21.5933 67.7329 21.5933C67.5985 21.6114 67.4642 21.6295 67.3319 21.6476C67.0993 21.7119 66.8948 21.8245 66.7183 21.9854C66.588 22.0739 66.4537 22.1604 66.3274 22.257C66.0286 22.4842 65.754 22.7135 65.4973 22.987C65.1786 23.3269 64.8658 23.6728 64.557 24.0208C64.2342 24.3828 63.9134 24.7468 63.5666 25.0887C63.2217 25.4266 62.8648 25.7524 62.534 26.1044C61.8563 26.8224 61.1867 27.5464 60.5251 28.2785C60.1942 28.6465 59.8594 29.0105 59.5406 29.3886C59.2319 29.7567 58.9412 30.1368 58.6464 30.5169C58.2595 31.0177 57.8545 31.5024 57.4755 32.0112C57.241 32.323 57.0104 32.6367 56.7738 32.9464C56.1843 33.6866 55.5809 34.4126 54.9954 35.1547C54.3177 36.0155 53.6842 36.9045 53.0466 37.7974C52.8481 38.077 52.6436 38.3505 52.4371 38.624C51.8837 39.334 51.3264 40.0399 50.773 40.7499C50.2296 41.4437 49.6723 42.1235 49.1169 42.8073C49.1009 42.8234 49.0848 42.8395 49.0688 42.8556C48.7159 43.2075 48.363 43.5575 48.0142 43.9155C47.6693 44.2695 47.3185 44.6194 46.9816 44.9834C46.5786 45.4178 46.1776 45.8543 45.7747 46.2887C45.1451 46.9705 44.5336 47.6684 43.9241 48.3683C43.1903 49.213 42.4625 50.0617 41.7427 50.9185C41.6404 51.0411 41.5382 51.1638 41.4359 51.2865C41.3658 51.2764 41.2936 51.2684 41.2214 51.2684C41.0931 51.2865 40.9648 51.3026 40.8365 51.3207C40.5939 51.3891 40.3833 51.5097 40.2049 51.6867C40.1708 51.7129 40.1387 51.739 40.1047 51.7632C39.8601 51.7632 39.6134 51.8235 39.415 51.9542C39.2906 52.0347 39.1323 52.1352 39.044 52.2338C38.9979 52.2861 38.9518 52.3384 38.9057 52.3906C38.8135 52.4952 38.7253 52.6038 38.637 52.7124C38.5689 52.7949 38.5027 52.8774 38.4365 52.9618C38.2621 53.1831 38.0877 53.4043 37.9132 53.6275C37.6907 53.9091 37.4722 54.1927 37.2516 54.4763C36.7524 55.1178 36.2531 55.7594 35.7579 56.405C34.7434 57.5333 33.7249 58.6595 32.7405 59.814C32.137 60.5199 31.5796 61.264 31.0182 62.0041C30.8418 62.2314 30.6634 62.4567 30.4749 62.6739C30.1902 62.9997 29.9015 63.3215 29.6128 63.6433C29.3481 63.9389 29.1035 64.2486 28.8569 64.5604C28.6825 64.7796 28.512 65.0028 28.3476 65.2281C28.3176 65.2583 28.2895 65.2884 28.2594 65.3206C27.67 65.9441 27.0865 66.5675 26.475 67.1689C25.9056 67.73 25.3061 68.267 24.8149 68.9005C24.5843 69.1982 24.3638 69.4878 24.1834 69.8076C24.1713 69.8116 24.1593 69.8156 24.1473 69.8217C23.8385 69.9423 23.7603 69.9805 23.5097 70.1977C23.2871 70.3888 23.1368 70.6523 23.0526 70.9318C22.9724 71.2013 22.9924 71.4909 23.0907 71.7524C23.0866 71.7946 23.0826 71.8369 23.0806 71.8831C23.0686 72.1848 23.1648 72.4845 23.3353 72.7298C23.3593 72.9792 23.3814 73.2326 23.4335 73.478C23.4997 73.7817 23.5819 74.0693 23.6982 74.3569C23.8225 74.6646 23.9588 74.9703 24.0911 75.274C24.2214 75.5938 24.3518 75.9156 24.4801 76.2374C24.6325 76.6195 24.7708 77.0097 24.9091 77.3978C25.0455 77.7719 25.1858 78.144 25.3362 78.512C25.4846 78.874 25.6109 79.2481 25.7392 79.6182C25.8475 79.9279 25.9637 80.2336 26.0861 80.5373C26.2525 80.9435 26.4169 81.3438 26.6434 81.7199C26.7998 81.9793 26.9622 82.2347 27.1046 82.5002C27.1747 82.6329 27.2369 82.7677 27.3071 82.9004C27.5717 83.3992 28.0509 83.8759 28.6644 83.8296C28.7687 83.8155 28.8749 83.8014 28.9792 83.7874C29.0173 83.7773 29.0534 83.7632 29.0875 83.7492C29.1436 83.8598 29.2138 83.9603 29.298 84.0428C29.3621 84.1071 29.4323 84.1614 29.5065 84.2077C29.4283 84.5154 29.3742 84.8392 29.4884 85.1429C29.5225 85.2254 29.5586 85.3078 29.5927 85.3903C29.6849 85.5472 29.8092 85.6698 29.9636 85.7624C30.0458 85.7965 30.128 85.8327 30.2102 85.8669C30.3305 85.8991 30.4508 85.9112 30.5731 85.9011C30.8217 85.9554 31.0904 85.9192 31.3089 85.7845C31.6217 85.5914 31.8523 85.3118 32.0969 85.0423C32.2272 84.8996 32.3555 84.7547 32.4838 84.6099C32.7164 84.3505 32.941 84.083 33.1695 83.8195C33.4562 83.4897 33.7389 83.1639 33.9655 82.7878C34.0798 82.6008 34.178 82.4057 34.2823 82.2146C34.4968 81.9894 34.7154 81.7681 34.9399 81.5549C34.9439 81.5509 34.9499 81.5469 34.9539 81.5409C35.0081 81.5006 35.0602 81.4584 35.1103 81.4142C35.2366 81.2875 35.3249 81.1366 35.373 80.9636C35.4452 80.7002 35.4071 80.4126 35.2707 80.1753C35.1805 80.0224 35.0582 79.8997 34.9058 79.8092C34.7474 79.7167 34.5349 79.6544 34.3364 79.6644C34.3304 79.6584 34.3264 79.6524 34.3204 79.6463C34.2763 79.592 34.2322 79.5397 34.184 79.4915C34.1379 79.4412 34.0938 79.3929 34.0497 79.3426C33.9615 79.2421 33.8713 79.1435 33.781 79.043C33.6106 78.8539 33.4402 78.6669 33.2698 78.4778C33.1054 78.2968 32.937 78.1158 32.7645 77.9428C32.4638 77.6432 32.1731 77.3214 31.8403 77.0599C31.73 76.9493 31.6037 76.8669 31.4613 76.8105C31.4312 76.7703 31.4012 76.7301 31.3691 76.6899C31.2247 76.4988 31.0804 76.3077 30.924 76.1267C30.8779 76.0744 30.8378 76.0181 30.7877 75.9699C30.6132 75.7969 30.4368 75.7205 30.2102 75.636C30.112 75.6099 30.0137 75.5958 29.9175 75.5958C29.8213 75.5958 29.721 75.6099 29.6248 75.636C29.5666 75.6521 29.5105 75.6742 29.4564 75.7004C29.5426 75.6179 29.6268 75.5334 29.707 75.4449C29.9857 75.1352 30.2463 74.8094 30.509 74.4856C30.7556 74.1799 30.9942 73.8662 31.2328 73.5544C31.5114 73.1944 31.7921 72.8404 32.0808 72.4905C32.2432 72.2934 32.4257 72.1064 32.6061 71.9254C32.7706 71.7624 32.933 71.5995 33.1074 71.4467C33.3339 71.3683 33.5445 71.2315 33.7008 71.0746C33.8071 70.968 33.9174 70.8192 33.9916 70.6764C34.0317 70.602 34.0637 70.5215 34.0998 70.4451C34.166 70.3003 34.2322 70.1555 34.3023 70.0107C34.3785 69.8558 34.4547 69.703 34.5309 69.5501C34.567 69.4757 34.6031 69.4013 34.6392 69.3289C34.7194 69.164 34.7976 68.983 34.8597 68.8161C34.978 68.5003 34.994 68.1544 34.9098 67.8286C35.4291 67.016 35.9504 66.2055 36.4697 65.393C36.6281 65.1456 36.7865 64.8983 36.9469 64.6529C37.3859 63.9952 37.831 63.3416 38.2761 62.688C39.2566 61.25 40.2871 59.8481 41.3277 58.4504C41.4841 58.2493 41.6404 58.0461 41.7868 57.837C41.7888 57.8329 41.7928 57.8289 41.7948 57.8229C42.252 57.2095 42.7091 56.594 43.1642 55.9766C43.6294 55.3451 44.0805 54.7015 44.5556 54.078C44.5216 54.1223 44.4895 54.1645 44.4554 54.2088C44.6539 53.9493 44.8484 53.6899 45.0288 53.4143C45.123 53.2695 45.1792 53.1026 45.2032 52.9317C46.0574 51.8798 46.9235 50.836 47.7856 49.7882C48.355 49.0943 48.9465 48.4165 49.5099 47.7186C49.6983 47.5296 49.8267 47.3064 49.8988 47.0489C49.9269 46.9443 49.9449 46.8398 49.951 46.7352C49.9971 46.6849 50.0412 46.6346 50.0873 46.5843C50.7389 45.8583 51.3624 45.1081 52.0161 44.3821C52.1303 44.2554 52.2426 44.1287 52.3569 44.004C52.5434 43.8169 52.6717 43.5937 52.7439 43.3383C52.7499 43.3121 52.7579 43.288 52.7619 43.2618C53.4817 42.4493 54.2015 41.6368 54.9272 40.8323C55.5628 40.1244 56.1442 39.3722 56.7798 38.6622C57.4194 37.9483 58.073 37.2464 58.6845 36.5063C59.4384 35.5932 60.1421 34.6419 60.8599 33.7006C61.0403 33.4653 61.2208 33.228 61.3972 32.9887C61.5596 32.7674 61.708 32.5362 61.8604 32.3109C62.1611 31.8644 62.4618 31.4199 62.7806 30.9875C63.34 30.2836 63.9355 29.6139 64.555 28.9623C65.2227 28.2604 65.9384 27.6128 66.582 26.8887C66.967 26.4563 67.366 26.042 67.773 25.6317C67.9855 25.4185 68.188 25.2013 68.3805 24.9701C68.5529 24.7609 68.7193 24.5457 68.8496 24.3084C68.986 24.059 69.0782 23.7855 69.1864 23.522C69.2586 23.2525 69.2586 22.985 69.1864 22.7155L69.1904 22.7075ZM29.709 80.5373C29.7351 80.6338 29.7752 80.7243 29.8233 80.8068C29.8233 80.8229 29.8253 80.839 29.8273 80.855C29.8313 80.9455 29.8353 81.0361 29.8393 81.1245C29.7832 81.1929 29.7351 81.2673 29.6889 81.3438C29.6729 81.2734 29.6569 81.203 29.6408 81.1346C29.5526 80.7706 29.4484 80.4126 29.3641 80.0465C29.2739 79.6524 29.2098 79.2521 29.1276 78.8579C29.1155 78.7956 29.1015 78.7332 29.0875 78.6709C29.1035 78.4939 29.1095 78.3149 29.1015 78.1359C29.0895 77.8966 29.0714 77.6593 29.0554 77.4199C29.1015 77.5024 29.1476 77.5828 29.1977 77.6613C29.1797 77.7457 29.1717 77.8322 29.1817 77.9288C29.1997 78.0977 29.2198 78.2043 29.2599 78.3511C29.2819 78.4275 29.302 78.502 29.322 78.5784C29.3661 78.7393 29.4103 78.9022 29.4564 79.0631C29.4864 79.2903 29.5185 79.5176 29.5506 79.7429C29.5887 80.0103 29.6248 80.2798 29.709 80.5353V80.5373Z" fill="#32758A"/>
<path d="M71.3757 21.157C71.2233 20.8975 70.9867 20.7306 70.706 20.6401C70.6379 20.618 70.5677 20.6059 70.4935 20.5999C70.5175 20.5777 70.5396 20.5536 70.5617 20.5295C70.6178 20.4671 70.6719 20.4028 70.714 20.3304C70.9045 19.9925 70.8564 19.5621 70.5797 19.2845C70.4133 19.1176 70.1927 19.0352 69.9742 19.0352C69.8238 19.0352 69.6735 19.0734 69.5391 19.1498C69.3787 19.2343 69.2224 19.3207 69.0559 19.3952C68.8715 19.4776 68.689 19.5621 68.5086 19.6546C68.1497 19.8376 67.8089 20.0468 67.4781 20.2761C66.8084 20.7406 66.1688 21.2535 65.5152 21.7442C65.1904 21.9896 64.8636 22.233 64.5187 22.4502C64.1599 22.6754 63.793 22.8906 63.4341 23.1159C63.0952 23.327 62.7744 23.5664 62.4476 23.7977C62.1048 24.039 61.7559 24.2723 61.4111 24.5096C61.0682 24.7449 60.7374 25.0004 60.4006 25.2457C60.0196 25.5233 59.6427 25.8048 59.2798 26.1045C58.6563 26.6214 58.0468 27.1543 57.4333 27.6853C57.4132 27.7014 57.3932 27.7195 57.3751 27.7356C57.349 27.7456 57.321 27.7557 57.2949 27.7678C56.8638 27.9246 56.4629 28.1821 56.0779 28.4234C55.707 28.6547 55.3401 28.892 54.9752 29.1293C54.2614 29.5899 53.5777 30.0867 52.9021 30.6015C52.2485 31.0983 51.5969 31.6011 50.9112 32.0496C50.5483 32.2869 50.1834 32.5182 49.8165 32.7515C49.7483 32.7414 49.6821 32.7334 49.614 32.7233C49.3714 32.7233 49.1448 32.7837 48.9343 32.9043C48.6716 33.0129 48.411 33.1256 48.1644 33.2684C47.8997 33.4232 47.6491 33.5982 47.3985 33.7752C46.8251 34.1814 46.2817 34.6299 45.7424 35.0764C45.3735 35.3821 45.0186 35.7059 44.6557 36.0217C44.5434 36.1202 44.4312 36.2188 44.3189 36.3173C44.2046 36.3636 44.0903 36.4119 43.978 36.4621C43.8557 36.5184 43.7415 36.6049 43.6312 36.6814C43.3024 36.9106 42.9896 37.1681 42.6788 37.4195C42.5204 37.5462 42.3641 37.6749 42.2097 37.8036C42.1295 37.872 42.0493 37.9383 41.9671 38.0067C41.9611 38.0067 41.9551 38.0027 41.949 38.0007C41.5501 37.8901 41.1571 37.9605 40.7962 38.1515C40.5516 38.2803 40.307 38.3989 40.0784 38.5558C39.7416 38.7891 39.4248 39.0485 39.112 39.312C38.9296 39.4648 38.7531 39.6197 38.5767 39.7806C38.1717 40.1486 37.7667 40.5147 37.3617 40.8827C37.3276 40.9129 37.2955 40.9431 37.2615 40.9752C37.2494 40.9813 37.2374 40.9893 37.2254 40.9954C37.1011 41.0577 36.9748 41.112 36.8545 41.1804C36.7322 41.2468 36.6199 41.3353 36.5096 41.4197C36.1808 41.6671 35.866 41.9286 35.5553 42.2001C35.3949 42.3408 35.2365 42.4816 35.0801 42.6244C34.7974 42.8819 34.5147 43.1393 34.23 43.3967C34.1418 43.3786 34.0556 43.3686 33.9673 43.3686C33.8551 43.3686 33.7408 43.3847 33.6285 43.4148C33.414 43.4752 33.2255 43.5858 33.0671 43.7426C32.7283 44.0222 32.3894 44.3038 32.0526 44.5853C31.9484 44.5894 31.8441 44.6054 31.7459 44.6356C31.5574 44.6919 31.3729 44.7684 31.2045 44.8709C30.9659 45.0157 30.7614 45.2148 30.5509 45.3979C30.4507 45.4843 30.3444 45.5628 30.2401 45.6452C29.9394 45.8846 29.6387 46.1239 29.3379 46.3612C28.951 46.6689 28.558 46.9726 28.169 47.2763C27.4914 47.7932 26.8117 48.3081 26.132 48.8229C25.745 49.1166 25.3621 49.4142 24.9812 49.7139C24.6684 49.9592 24.3516 50.1986 24.0448 50.454C23.9687 50.5184 23.8905 50.5827 23.8143 50.6451C23.72 50.6752 23.6298 50.7175 23.5496 50.7698C22.9862 51.1418 22.479 51.6104 21.9858 52.073C21.8795 52.1736 21.7732 52.2721 21.669 52.3727C21.4925 52.3586 21.3161 52.3747 21.1397 52.423C20.9893 52.4773 20.8429 52.5436 20.6966 52.608C20.6805 52.6201 20.6625 52.6321 20.6465 52.6422C20.5242 52.7347 20.4039 52.8272 20.2856 52.9237C20.2274 52.97 20.1753 53.0243 20.1192 53.0746C20.0209 53.1631 19.9227 53.2495 19.8244 53.338C19.6861 53.4627 19.5477 53.5874 19.4074 53.7081C19.0686 53.9997 18.7277 54.2893 18.3829 54.5749C17.7633 55.0858 17.1057 55.5524 16.5143 56.0954C16.1654 56.4172 15.8466 56.7691 15.4877 57.0789C15.2531 57.2558 15.0166 57.4288 14.772 57.5937C14.4472 57.8129 14.0903 57.9879 13.7434 58.1629C13.4046 58.3359 13.0798 58.5289 12.757 58.7341C12.5966 58.8366 12.4342 58.9312 12.2718 59.0317C12.1134 59.1283 11.957 59.2328 11.7926 59.3213C11.6021 59.4219 11.4056 59.5164 11.2092 59.6049C10.9886 59.6854 10.7641 59.7457 10.5335 59.798C10.3069 59.8503 10.1004 59.9569 9.87587 60.0112C9.64731 60.0393 9.57312 60.0635 9.25835 60.2183C9.01174 60.3652 8.81325 60.5622 8.66889 60.8116C8.58669 60.9363 8.53055 61.0691 8.50248 61.2119C8.48243 61.3567 8.46439 61.5015 8.44434 61.6463C8.44434 61.9419 8.51852 62.2175 8.66689 62.4729C8.75711 62.682 9.06587 62.9636 9.26035 63.0702C9.34857 63.1185 9.4408 63.1688 9.53503 63.207C9.82174 63.3638 10.1125 63.5107 10.3931 63.6776C10.758 63.8948 11.125 64.11 11.4919 64.3212C11.8467 64.5243 12.1976 64.7355 12.5445 64.9527C12.8853 65.1659 13.2301 65.377 13.571 65.5922C14.2687 66.0367 14.9203 66.5576 15.588 67.0443C15.9068 67.2756 16.2195 67.5149 16.5463 67.7321C17.0155 68.0439 17.5087 68.2812 18.04 68.4723C18.2185 68.5366 18.4069 68.5728 18.5974 68.5869C18.6054 68.605 18.6134 68.6231 18.6195 68.6412C18.6876 68.8001 18.7718 68.9489 18.8681 69.0917C19.0164 69.3129 19.1808 69.5362 19.3833 69.7112C19.4976 69.8097 19.6781 69.9646 19.8365 70.043C19.9748 70.1074 20.1151 70.1657 20.2595 70.22C20.4239 70.2421 20.5883 70.2642 20.7507 70.2864C20.853 70.2864 20.9512 70.2763 21.0474 70.2582C21.1096 70.3427 21.1778 70.4231 21.2439 70.5076C21.3943 70.7027 21.7051 70.8957 21.9477 70.948C22.078 70.9762 22.2103 70.9943 22.3446 71.0044C22.5973 71.0044 22.8319 70.94 23.0504 70.8133C23.1045 70.7731 23.1607 70.7328 23.2148 70.6926C23.5596 70.4875 23.7822 70.1094 23.8143 69.7132C23.8644 69.685 23.9145 69.6548 23.9606 69.6227C24.2133 69.4517 24.4619 69.2647 24.6884 69.0595C24.9952 68.78 25.2779 68.4783 25.5626 68.1766C26.124 67.5833 26.6793 66.986 27.2147 66.3686C27.9124 65.5681 28.6161 64.7737 29.3159 63.9772C29.358 63.937 29.4001 63.8948 29.4402 63.8526C29.5043 63.7862 29.5685 63.7178 29.6326 63.6514C29.769 63.5086 29.9093 63.3658 30.0416 63.219C30.3284 62.9033 30.6131 62.5875 30.8958 62.2677C31.1644 61.962 31.4311 61.6543 31.6997 61.3486C31.9965 61.0128 32.2992 60.6809 32.5879 60.339C32.7624 60.162 32.8827 59.9549 32.9508 59.7155C32.9689 59.6512 32.9809 59.5868 32.9889 59.5225C33.1032 59.3817 33.2155 59.2389 33.3298 59.0981C33.3618 59.0579 33.3959 59.0156 33.43 58.9754C33.5784 58.8366 33.7247 58.6979 33.8731 58.5591C34.4906 57.9718 35.1001 57.3745 35.7217 56.7892C36.9427 55.6409 38.1537 54.4744 39.2624 53.2134C39.4068 53.0504 39.5531 52.8875 39.6915 52.7206C39.7697 52.6261 39.8499 52.5316 39.928 52.437C40.0544 52.2862 40.1727 52.1273 40.2909 51.9704C40.323 51.9262 40.3551 51.8819 40.3852 51.8357C40.4734 51.7029 40.5195 51.5622 40.5496 51.4174C41.0749 50.9005 41.5681 50.3474 42.0653 49.8024C42.6548 49.1568 43.2402 48.5052 43.8237 47.8535C44.8221 46.7413 45.8086 45.6171 46.813 44.5069C46.9053 44.4124 46.9975 44.3158 47.0897 44.2213C47.3804 43.9257 47.6992 43.6461 47.9198 43.2901C48.004 43.1534 48.0601 43.0045 48.0882 42.8517C48.3849 42.542 48.6817 42.2322 48.9784 41.9205C49.2631 41.6188 49.5478 41.3172 49.8345 41.0175C50.1794 40.6575 50.5282 40.2975 50.857 39.9234C51.0695 39.7183 51.2801 39.5111 51.4926 39.306C52.6535 38.1777 53.8504 37.0876 55.0233 35.9714C55.4524 35.5631 55.8794 35.1569 56.3065 34.7466C56.4949 34.5676 56.6834 34.3866 56.8719 34.2076C56.9922 34.0929 57.1105 33.9803 57.2308 33.8657C57.313 33.7872 57.4032 33.7209 57.4834 33.6424C57.6157 33.5117 57.742 33.3569 57.8202 33.1859C57.8904 33.0652 57.9425 32.9405 57.9806 32.8118C58.0608 32.7334 58.141 32.6549 58.2212 32.5765C58.8026 32.0114 59.3781 31.4402 59.9535 30.867C60.2241 30.5995 60.4928 30.33 60.7635 30.0625C60.8918 29.9358 61.0201 29.8071 61.1484 29.6784C61.3329 29.5094 61.5254 29.3445 61.6938 29.1635C61.8722 28.9725 61.9785 28.7392 61.9785 28.4737C61.9785 28.4495 61.9785 28.4274 61.9765 28.4033C62.1108 28.3007 62.2451 28.1961 62.3795 28.0916C62.6942 27.8442 62.999 27.5867 63.2877 27.3132C63.4361 27.1724 63.5784 27.0276 63.7148 26.8748C63.7729 26.8104 63.829 26.742 63.8852 26.6737C63.9694 26.5691 64.0496 26.4605 64.1318 26.3519C64.232 26.2171 64.3062 26.0844 64.3503 25.9154C64.3503 25.9094 64.3523 25.9054 64.3543 25.8994C65.3147 25.0486 66.2711 24.1939 67.2415 23.3532C67.4941 23.134 67.7487 22.9147 68.0033 22.6975C68.26 22.5004 68.5126 22.3013 68.7632 22.0982C68.681 22.2269 68.5988 22.3556 68.5206 22.4864C68.3562 22.7538 68.1958 23.0254 68.0374 23.2969C67.9031 23.5282 67.7628 23.7615 67.6425 24.0008C67.6064 24.0491 67.5723 24.1013 67.5442 24.1456C67.5202 24.1818 67.4981 24.218 67.476 24.2562C67.4279 24.3367 67.3798 24.4171 67.3317 24.4996C67.2495 24.6403 67.1673 24.7811 67.0871 24.9239C66.9066 25.0285 66.7583 25.1814 66.642 25.3644C66.3593 25.8048 66.1047 26.2614 65.85 26.7199C65.7378 26.921 65.6235 27.1242 65.5132 27.3273C65.5032 27.3293 65.4931 27.3333 65.4831 27.3353C65.3909 27.3756 65.2987 27.4138 65.2044 27.452C65.03 27.5566 64.8917 27.6953 64.7874 27.8703C64.5889 28.1298 64.4225 28.4194 64.2541 28.6989C64.1478 28.8779 64.0396 29.0549 63.9313 29.2339C63.6767 29.6261 63.418 30.0163 63.1634 30.4084C63.0932 30.5191 63.021 30.6277 62.9509 30.7383C62.8566 30.7785 62.7624 30.8187 62.6662 30.859C62.4857 30.9655 62.3414 31.1104 62.2331 31.2934C61.9865 31.6172 61.786 31.9732 61.5775 32.3211C61.5153 32.4237 61.4532 32.5262 61.393 32.6288C61.2627 32.8279 61.1344 33.027 61.0041 33.2261C60.8577 33.2865 60.7234 33.377 60.6071 33.4916C60.5088 33.5902 60.4066 33.6867 60.3083 33.7872C60.2061 33.8918 60.1159 34.0105 60.0257 34.1271C59.775 34.453 59.5384 34.7828 59.3099 35.1247C59.1936 35.2997 59.0853 35.4787 58.9731 35.6556C58.6924 36.1082 58.4097 36.5607 58.129 37.0132C57.9966 37.2284 57.8643 37.4456 57.734 37.6628C57.4533 37.697 57.1526 37.8237 56.9741 38.0349C56.7255 38.3305 56.4829 38.6302 56.2604 38.946C56.0599 39.2275 55.8734 39.5191 55.6849 39.8108C55.5727 39.9857 55.4644 40.1627 55.3561 40.3397C55.0333 40.8707 54.7125 41.3996 54.3897 41.9306C54.2895 42.0955 54.1913 42.2604 54.093 42.4273C54.0509 42.4233 54.0068 42.4193 53.9647 42.4193C53.8745 42.4193 53.7842 42.4293 53.696 42.4515C53.5938 42.4736 53.4955 42.5098 53.4013 42.5621C53.261 42.6184 53.1286 42.7008 53.0164 42.8115C52.5392 43.2781 52.1522 43.8291 51.7492 44.3601C51.5387 44.6376 51.3302 44.9172 51.1257 45.2008C50.9031 45.5065 50.6826 45.8122 50.4641 46.1199C50.1994 46.4919 49.9107 46.862 49.6921 47.2622C49.65 47.3407 49.616 47.4211 49.5919 47.5036C49.4896 47.6544 49.3874 47.8053 49.2851 47.9541C49.1187 48.1934 48.9543 48.4307 48.7899 48.6701C48.5493 49.016 48.3107 49.3639 48.0742 49.7139C47.5088 50.5425 46.9634 51.3832 46.4161 52.2259C46.2597 52.4652 46.1053 52.7065 45.9509 52.9479C45.2752 53.9374 44.6076 54.9309 43.9179 55.9104C43.8497 56.0029 43.7836 56.0954 43.7194 56.1899C43.6613 56.2784 43.6192 56.377 43.5931 56.4835C43.565 56.5258 43.535 56.57 43.5069 56.6123C43.3144 56.6947 43.14 56.8114 42.9876 56.9642C42.7229 57.284 42.4743 57.6179 42.2217 57.9477C42.3079 57.8371 42.3941 57.7245 42.4783 57.6138C42.2819 57.8693 42.0934 58.1287 41.9089 58.3942C41.7004 58.6697 41.4919 58.9452 41.2874 59.2228C40.8423 59.8302 40.3992 60.4396 39.9501 61.0449C38.8333 62.4689 37.6765 63.8646 36.6099 65.3268C36.0124 66.1453 35.4209 66.9699 34.8315 67.7945C34.3042 68.5366 33.8109 69.3009 33.3237 70.0692C32.6902 71.0687 32.0947 72.0984 31.387 73.0497C31.1885 73.2971 30.982 73.5344 30.7454 73.7456C30.6832 73.7858 30.6191 73.8261 30.5529 73.8623C30.2883 74.0071 30.0777 74.2102 29.9234 74.4716C29.6366 74.9503 29.6447 75.6019 29.9454 76.0726C30.192 76.4607 30.5509 76.7242 30.9399 76.9535C31.1785 77.0942 31.417 77.2411 31.6436 77.3999C31.7298 77.4784 31.814 77.5588 31.9042 77.6353C32.1448 77.8424 32.3955 78.0214 32.6761 78.1642C32.9869 78.3231 33.3077 78.4639 33.6205 78.6147C33.6265 78.6187 33.6345 78.6207 33.6405 78.6248C33.6445 78.8822 33.7528 79.1979 33.8731 79.4031C33.9774 79.5821 34.0736 79.6927 34.1899 79.7933C34.1859 79.7892 34.1819 79.7872 34.1779 79.7832C34.1859 79.7892 34.1939 79.7953 34.2019 79.8033C34.238 79.8355 34.2761 79.8657 34.3182 79.8958C34.5307 80.0648 34.7513 80.2257 34.9858 80.3604C35.0741 80.4107 35.1623 80.459 35.2505 80.5072C35.2886 80.5334 35.3287 80.5615 35.3668 80.5877C35.6615 80.7888 35.9562 80.9899 36.263 81.1729C36.5196 81.3238 36.7763 81.4786 37.0469 81.6053C37.2534 81.7019 37.46 81.8024 37.6805 81.8648C37.6945 81.8688 37.7066 81.8728 37.7206 81.8748C37.9612 82.0377 38.1978 82.2087 38.4304 82.3837C39.1561 82.9649 39.8378 83.6085 40.6438 84.0811C41.0147 84.2983 41.3937 84.5055 41.7505 84.7508C41.929 84.8735 42.1014 85.0022 42.2738 85.131C42.35 85.1873 42.4262 85.2416 42.5044 85.2898C42.5425 85.314 42.5826 85.3381 42.6227 85.3582C42.7911 85.4427 42.9976 85.5191 43.1861 85.5955C43.3104 85.6458 43.5009 85.672 43.7014 85.676C43.7154 85.6881 43.7314 85.7021 43.7475 85.7142C43.8056 85.7625 43.8638 85.8107 43.9239 85.859C44.1164 86.1889 44.4372 86.4443 44.8021 86.5448C45.0928 86.6253 45.3935 86.6092 45.6662 86.5126C45.9168 86.4905 46.1634 86.4201 46.384 86.2934C46.7028 86.1124 46.9273 85.853 47.1178 85.5433C47.2301 85.3623 47.3263 85.1732 47.4205 84.9821C47.623 84.5698 47.8095 84.1475 47.996 83.7272C48.026 83.6588 48.0541 83.5904 48.0842 83.522C48.1523 83.3591 48.2546 83.1761 48.2927 82.9951C48.3248 82.8764 48.3408 82.7537 48.3428 82.627C48.3428 82.3837 48.2787 82.1464 48.1584 81.9372C48.5473 81.0362 48.9222 80.1331 49.3012 79.2281C49.5177 78.7173 49.7363 78.2044 49.9508 77.6936C50.3177 76.8831 50.6846 76.0746 51.0495 75.262C51.1999 74.9262 51.3502 74.5883 51.5026 74.2504C51.7412 73.81 51.9337 73.3454 52.1382 72.8888C52.2705 72.5932 52.4048 72.2975 52.5392 72.0019C52.6053 71.8591 52.6715 71.7183 52.7377 71.5775C52.9201 71.1854 53.1226 70.8012 53.3151 70.4131C53.5557 69.9264 53.8043 69.4437 54.0589 68.965C54.1171 68.8624 54.1732 68.7599 54.2314 68.6573C54.4339 68.2973 54.6764 67.9554 54.7847 67.5511C54.917 67.0644 54.7767 66.5435 54.4379 66.1896C54.5541 65.9261 54.6684 65.6606 54.7827 65.3951C54.8248 65.2966 54.8669 65.198 54.909 65.1015C55.1737 64.5565 55.4383 64.0114 55.697 63.4644C55.7531 63.3337 55.8072 63.2009 55.8634 63.0702C55.8975 62.9415 55.9175 62.8128 55.9215 62.6841C55.9356 62.6237 55.9456 62.5634 55.9516 62.503C55.9556 62.499 55.9596 62.495 55.9636 62.491C56.098 62.3462 56.2223 62.1933 56.3145 62.0204C56.4107 61.8373 56.4829 61.6382 56.5551 61.4431C56.6012 61.3205 56.6493 61.1978 56.6954 61.0751C56.7937 60.8177 56.8919 60.5602 56.9922 60.3028C57.1445 59.9046 57.2849 59.5044 57.4292 59.1041C57.5375 58.8025 57.6458 58.5028 57.754 58.2011C57.7941 58.1689 57.8342 58.1367 57.8763 58.1005C57.9726 58.0201 58.0367 57.9014 58.1109 57.8009C58.143 57.7566 58.1651 57.7043 58.1871 57.6561C58.2693 57.4751 58.3375 57.2981 58.3936 57.109C58.4237 57.0125 58.4538 56.916 58.4919 56.8214C58.5861 56.5861 58.6803 56.3528 58.7746 56.1175C58.937 55.7133 59.0954 55.311 59.2497 54.9048C59.6026 53.9675 59.9495 53.0263 60.2943 52.0871C60.8677 50.5204 61.4792 48.9697 62.1108 47.4272C62.1689 47.212 62.1689 46.9968 62.1108 46.7795C62.0527 46.5724 61.9484 46.3934 61.798 46.2426C61.7339 46.1782 61.6637 46.1219 61.5895 46.0756C61.9304 45.1505 62.2752 44.2273 62.6261 43.3042C62.6401 43.27 62.6541 43.2358 62.6682 43.2016C62.6822 43.1735 62.6962 43.1453 62.7103 43.1172C63.5644 41.3654 64.3764 39.5936 65.1824 37.8197C65.7257 36.621 66.2731 35.4244 66.8124 34.2237C66.8946 34.0487 66.9748 33.8757 67.053 33.6988C67.1954 33.381 67.3377 33.0652 67.4801 32.7475C67.6485 32.3694 67.8229 31.9892 67.9673 31.5991C68.0074 31.4523 68.0194 31.3054 68.0054 31.1566C68.1116 30.8388 68.2139 30.5191 68.3161 30.1993C68.3723 29.9881 68.3723 29.7769 68.3161 29.5678C68.282 29.4431 68.2279 29.3264 68.1577 29.2198C68.5286 28.4958 68.8955 27.7698 69.2625 27.0417C69.6233 26.3277 69.9762 25.6077 70.305 24.8777C70.5216 24.397 70.7381 23.9143 70.9406 23.4276C71.0248 23.2245 71.113 23.0234 71.1952 22.8182C71.2995 22.5588 71.4258 22.2973 71.494 22.0258C71.5702 21.7322 71.5341 21.4224 71.3817 21.159L71.3757 21.157ZM10.9946 60.3652C10.9946 60.3652 10.9886 60.3611 10.9866 60.3591C10.9926 60.3631 10.9986 60.3692 11.0047 60.3732C11.0006 60.3712 10.9986 60.3692 10.9946 60.3652ZM13.8898 61.9962C13.8898 61.9962 13.8798 61.9922 13.8757 61.9902C13.8898 61.9821 13.9018 61.9721 13.9158 61.964C13.9078 61.9761 13.8998 61.9862 13.8918 61.9982L13.8898 61.9962Z" fill="#54C6F5"/>
<path d="M26.7383 50.5658C26.7383 50.5658 26.7475 50.5589 26.7545 50.5542C26.7498 50.5565 26.7452 50.5612 26.7406 50.5635C26.7406 50.5635 26.7406 50.5635 26.7383 50.5635V50.5658Z" fill="#8E8E93"/>
<path d="M26.7532 50.5522L26.75 50.5555L26.7532 50.5522Z" fill="#8E8E93"/>
<path d="M58.9277 48.7984C58.9277 48.7984 58.9358 48.7802 58.9398 48.7702C58.9398 48.7702 58.9398 48.7662 58.9418 48.7642C58.9378 48.7762 58.9317 48.7863 58.9277 48.7984Z" fill="#8E8E93"/>
<path d="M72.8791 17.579C72.7869 17.4865 72.6545 17.4302 72.5222 17.4302C72.4781 17.4302 72.434 17.4362 72.3919 17.4503C72.2996 17.4784 72.2074 17.5086 72.1212 17.5508C72.027 17.5971 71.9368 17.6474 71.8465 17.7017C71.7804 17.7399 71.7142 17.7821 71.65 17.8224C71.5117 17.9068 71.3714 17.9913 71.233 18.0778C70.9222 18.2688 70.6095 18.4599 70.2987 18.651C69.6331 19.0592 68.9714 19.4715 68.3078 19.8838C67.2211 20.5576 66.1425 21.2454 65.0638 21.9332C62.6699 23.4577 60.28 24.9862 57.8921 26.5188C56.7453 27.2548 55.5944 27.9869 54.4516 28.7311C53.0822 29.624 51.7148 30.515 50.3455 31.408C49.8843 31.7096 49.4272 32.0194 48.9701 32.3251C48.12 32.8922 47.2699 33.4594 46.4218 34.0265C46.0609 34.2679 45.698 34.5052 45.3391 34.7506C44.6654 35.2131 43.9918 35.6757 43.3181 36.1383C42.6084 36.625 41.9006 37.1117 41.1929 37.5984C40.834 37.8458 40.4811 38.0992 40.1262 38.3506C39.2962 38.9379 38.4661 39.5231 37.6381 40.1084C37.2832 40.3578 36.9283 40.6051 36.5775 40.8606C35.1941 41.8641 33.8106 42.8657 32.4272 43.8693C32.0784 44.1227 31.7335 44.3822 31.3867 44.6396C30.5767 45.2409 29.7687 45.8423 28.9587 46.4436C27.868 47.2541 26.7833 48.0727 25.6986 48.8892C24.5779 49.7319 23.4531 50.5686 22.3263 51.4032C21.8511 51.7552 21.38 52.1132 20.9008 52.4591C20.187 52.976 19.4712 53.4908 18.7575 54.0077C18.3304 54.3154 17.9054 54.6231 17.4743 54.9248C16.7325 55.4437 15.9927 55.9646 15.2508 56.4835C15.0483 56.6243 14.8418 56.761 14.6373 56.8998C14.1461 57.2317 13.6549 57.5635 13.1637 57.8954C12.5802 58.2896 11.9848 58.6656 11.3853 59.0337C10.862 59.3535 10.3267 59.6552 9.78333 59.9407C9.52469 60.0775 9.26204 60.2062 8.9994 60.3349C8.74677 60.4596 8.49214 60.5803 8.23551 60.6949C8.22549 60.6889 8.21546 60.6809 8.20544 60.6748C8.13326 60.6266 8.05306 60.6044 7.97086 60.6044C7.79643 60.6044 7.622 60.701 7.53378 60.8518C7.46761 60.9664 7.44957 61.1052 7.48365 61.2319C7.51974 61.3606 7.59994 61.4532 7.71021 61.5276C8.36784 61.972 9.02346 62.4165 9.66303 62.8831C9.79135 62.9817 9.91967 63.0822 10.048 63.1808C10.0279 63.1667 10.0099 63.1506 9.98984 63.1365C10.2806 63.3638 10.5713 63.5911 10.864 63.8163C11.5557 64.3533 12.2614 64.8742 12.9592 65.4031C13.6028 65.8898 14.2624 66.3544 14.928 66.811C15.6378 67.2957 16.3495 67.7743 17.0533 68.2671C17.7309 68.7417 18.3926 69.2425 19.0803 69.7071C19.6798 70.1113 20.2913 70.5015 20.8887 70.9098C21.1674 71.1008 21.4441 71.2979 21.7248 71.487C21.9955 71.67 22.2661 71.849 22.5549 72.0039C22.8556 72.8265 23.1844 73.6349 23.5393 74.4354C23.8761 75.1956 24.2751 75.9277 24.65 76.6718C24.8245 77.0198 24.9889 77.3717 25.1553 77.7237C25.3377 78.1058 25.5202 78.488 25.6926 78.8741C25.867 79.2663 26.0435 79.6605 26.2239 80.0506C26.3963 80.4227 26.5768 80.7928 26.7552 81.1628C27.0119 81.6998 27.2504 82.2469 27.485 82.7959C27.7376 83.4033 27.9843 84.0107 28.2028 84.6321C28.4434 85.316 28.692 85.9957 29.0208 86.6433C29.0529 86.7057 29.099 86.756 29.1551 86.7942C29.1832 86.9148 29.2494 87.0315 29.3577 87.0979C29.4218 87.1381 29.502 87.1843 29.5822 87.1723C29.6343 87.1662 29.6865 87.1582 29.7386 87.1522C29.7867 87.1341 29.8328 87.1119 29.8789 87.0858C29.903 87.0677 29.9271 87.0496 29.9511 87.0295C29.9852 87.0053 30.0173 86.9772 30.0494 86.949C30.0975 86.9088 30.1396 86.8605 30.1837 86.8163C30.2158 86.7821 30.2478 86.7479 30.2799 86.7137C30.3501 86.6373 30.4223 86.5609 30.4925 86.4845C30.6268 86.3356 30.7611 86.1848 30.8954 86.036C31.1721 85.7343 31.4468 85.4306 31.7335 85.137C32.0323 84.8313 32.339 84.5316 32.6357 84.2239C32.9224 83.9262 33.2011 83.6185 33.4698 83.3027C33.7284 82.9991 33.9791 82.6873 34.2317 82.3776C34.4963 82.0558 34.753 81.73 34.9996 81.3941C35.16 81.1749 35.3123 80.9517 35.4647 80.7264C35.7454 80.9497 36.0281 81.1709 36.3148 81.3861C36.6396 81.6314 36.9684 81.8688 37.2972 82.1081C37.993 82.6129 38.6867 83.1197 39.3844 83.6185C39.7293 83.8659 40.0801 84.1092 40.427 84.3546C40.7458 84.5799 41.0666 84.8071 41.3954 85.0163C41.7422 85.2375 42.0911 85.4527 42.4399 85.6679C42.7888 85.8831 43.1316 86.1084 43.4845 86.3155C43.9396 86.583 44.4008 86.8424 44.884 87.0637C45.1105 87.1683 45.3371 87.2749 45.5637 87.3774C45.6719 87.4257 45.7782 87.478 45.8885 87.5242C45.9687 87.5584 46.0509 87.5946 46.1331 87.6228C46.1591 87.6308 46.1852 87.6389 46.2133 87.6449C46.2654 87.655 46.3195 87.663 46.3737 87.663C46.4699 87.667 46.5381 87.6308 46.6203 87.5926C46.7205 87.5484 46.7987 87.4257 46.8268 87.3251C46.8548 87.2246 46.8448 87.122 46.8047 87.0275C47.1215 86.4221 47.4082 85.8007 47.6869 85.1772C47.9977 84.4813 48.3024 83.7834 48.5931 83.0795C49.1886 81.6335 49.7781 80.1834 50.3515 78.7273C50.8728 77.4079 51.382 76.0826 51.9153 74.7672C52.2361 73.9768 52.5569 73.1864 52.8777 72.396C53.1985 71.6057 53.5333 70.8233 53.8601 70.0349C54.0907 69.4798 54.3193 68.9267 54.5478 68.3696C54.7563 67.8628 54.9649 67.356 55.1734 66.8492C55.2716 66.6119 55.3719 66.3766 55.4661 66.1372C55.7889 65.3247 56.1097 64.5122 56.4325 63.6997C56.647 63.1586 56.8555 62.6176 57.06 62.0726C57.3628 61.2681 57.6655 60.4636 57.9683 59.6592C58.0605 59.4138 58.1427 59.1624 58.2289 58.913C58.4094 58.3961 58.5898 57.8793 58.7703 57.3644C58.9607 56.8194 59.1512 56.2743 59.3356 55.7273C59.6484 54.7921 59.9612 53.8589 60.274 52.9237C61.2023 50.1543 62.1245 47.3829 63.0849 44.6235C63.3055 43.99 63.522 43.3524 63.7546 42.7229C64.0533 41.9184 64.35 41.116 64.6488 40.3115C64.763 40.0018 64.8934 39.6961 65.0157 39.3884C65.2102 38.8997 65.4046 38.4089 65.5991 37.9202C65.8598 37.2666 66.1264 36.6149 66.3911 35.9633C67.4958 33.2402 68.5364 30.4909 69.609 27.7556C69.8997 27.0155 70.1864 26.2754 70.4711 25.5333C70.5914 25.2215 70.7177 24.9118 70.828 24.5961C70.9844 24.1435 71.1408 23.691 71.2972 23.2405C71.4074 22.9187 71.5037 22.5929 71.6039 22.2691C71.7102 21.9272 71.8104 21.5833 71.9067 21.2394C72.0851 20.5978 72.2495 19.9502 72.4039 19.3026C72.45 19.2523 72.4981 19.202 72.5443 19.1518C72.6746 19.015 72.7989 18.8843 72.8931 18.7173C72.9553 18.6067 72.9673 18.476 72.9292 18.3593C72.9573 18.297 72.9813 18.2326 73.0074 18.1703C73.0194 18.0898 73.0294 18.0074 73.0375 17.9269C73.0535 17.8022 72.9753 17.6574 72.8911 17.573L72.8791 17.579ZM21.1775 69.7453C20.4857 69.2908 19.786 68.8523 19.1083 68.3777C18.3886 67.8749 17.6748 67.3661 16.945 66.8794C16.2754 66.4329 15.5977 65.9944 14.932 65.5399C14.5852 65.3026 14.2383 65.0673 13.8995 64.8199C13.5386 64.5564 13.1797 64.293 12.8208 64.0295C12.1672 63.5508 11.5176 63.0681 10.876 62.5734C10.4891 62.2737 10.1041 61.97 9.70113 61.6925C9.42043 61.4994 9.13974 61.3063 8.85704 61.1133C9.01343 61.0409 9.16982 60.9644 9.3242 60.89C9.81341 60.6547 10.2946 60.4033 10.7698 60.1419C11.1928 59.9086 11.6098 59.6592 12.0229 59.4058C12.2294 59.2791 12.4339 59.1503 12.6384 59.0196C12.8108 58.911 12.9852 58.8044 13.1557 58.6898C13.8413 58.2312 14.529 57.7707 15.2147 57.3121C15.714 56.9783 16.2052 56.6323 16.6984 56.2904C17.2317 55.9204 17.769 55.5563 18.2984 55.1802C19.0261 54.6594 19.7519 54.1405 20.4797 53.6216C20.8787 53.336 21.2777 53.0524 21.6727 52.7608C22.8115 51.9221 23.9563 51.0915 25.0911 50.2448C26.27 49.3659 27.4429 48.481 28.6258 47.6081C29.9491 46.6327 31.2724 45.6573 32.5956 44.6818C32.9786 44.4003 33.3655 44.1267 33.7505 43.8492C34.5785 43.2539 35.4066 42.6606 36.2326 42.0653C36.5735 41.8199 36.9123 41.5725 37.2551 41.3332C37.9649 40.8344 38.6767 40.3377 39.3884 39.8389C40.0541 39.3723 40.7177 38.9077 41.3833 38.4411C41.7683 38.1716 42.1613 37.9101 42.5502 37.6447C43.3883 37.0755 44.2243 36.5043 45.0624 35.9352C45.3892 35.7139 45.714 35.4887 46.0448 35.2715C47.5185 34.296 48.9901 33.3206 50.4637 32.3472C51.5925 31.599 52.7374 30.873 53.8742 30.1389C56.1057 28.6969 58.3512 27.2729 60.5968 25.849C63.1651 24.22 65.7354 22.5949 68.3158 20.988C68.795 20.6883 69.2782 20.3927 69.7614 20.101C69.6872 20.1714 69.615 20.2418 69.5408 20.3122C69.1459 20.6903 68.7609 21.0785 68.3639 21.4566C68.1514 21.6577 67.9349 21.8548 67.7183 22.0499C67.5078 22.2409 67.3033 22.438 67.0988 22.6331C66.2587 23.4316 65.4748 24.2883 64.6768 25.129C63.8929 25.9536 63.115 26.7862 62.3531 27.6309C61.9822 28.0432 61.6073 28.4535 61.2343 28.8658C60.8293 29.3123 60.4223 29.7568 60.0013 30.1892C59.2133 30.9977 58.4174 31.7981 57.6274 32.6066C56.7914 33.4654 55.9493 34.3182 55.1172 35.181C54.7283 35.5832 54.3554 35.9995 53.9804 36.4158C53.6055 36.8301 53.2386 37.2505 52.8516 37.6527C52.0557 38.4833 51.2477 39.3039 50.4617 40.1446C49.6497 41.0134 48.8458 41.8903 48.0398 42.7631C47.6408 43.1956 47.2378 43.626 46.8388 44.0563C46.4518 44.4747 46.0729 44.899 45.69 45.3194C44.9461 46.1379 44.1802 46.9364 43.4384 47.7569C42.6224 48.6559 41.8264 49.573 41.0345 50.4922C40.2926 51.355 39.5247 52.1956 38.7609 53.0363C37.9709 53.9052 37.191 54.782 36.405 55.6529C36.0341 56.0612 35.6592 56.4654 35.2823 56.8676C34.9013 57.2739 34.5184 57.6782 34.1455 58.0925C33.3355 58.9915 32.5335 59.8985 31.7195 60.7935C31.3385 61.2118 30.9536 61.6241 30.5686 62.0384C30.1837 62.4547 29.8068 62.8811 29.4318 63.3075C29.0529 63.7399 28.674 64.1723 28.289 64.6007C27.896 65.0391 27.489 65.4675 27.086 65.8979C26.7111 66.3001 26.3502 66.7144 25.9853 67.1267C25.5904 67.5732 25.1833 68.0117 24.7783 68.4501C24.4596 68.794 24.1428 69.1399 23.826 69.4838C23.6455 69.6809 23.4631 69.876 23.2847 70.0751C23.1483 70.228 23.016 70.3808 22.8917 70.5437C22.8295 70.6262 22.7694 70.7127 22.7132 70.7992C22.6912 70.7851 22.6691 70.769 22.6471 70.7549C22.4867 70.6443 22.3283 70.5317 22.1679 70.4211C21.8391 70.1898 21.5103 69.9605 21.1734 69.7413L21.1775 69.7453ZM28.1587 81.4987C27.7998 80.7264 27.4088 79.9722 27.0359 79.21C26.8595 78.848 26.6911 78.4839 26.5126 78.1219C26.3342 77.7579 26.1497 77.3979 25.9653 77.0359C25.6204 76.3621 25.2595 75.6964 24.9027 75.0287C24.5618 74.3912 24.2591 73.7375 23.9704 73.0738C23.8881 72.8747 23.8019 72.6756 23.7257 72.4725C23.6275 72.211 23.5293 71.9476 23.433 71.6841C23.4471 71.6057 23.4451 71.5252 23.423 71.4468C23.405 71.4045 23.3869 71.3623 23.3689 71.3201C23.3528 71.2939 23.3348 71.2698 23.3147 71.2456C23.3608 71.1652 23.413 71.0888 23.4671 71.0124C23.6696 70.7569 23.8922 70.5176 24.1167 70.2823C24.3332 70.055 24.5478 69.8258 24.7643 69.5965C25.1312 69.2083 25.4981 68.8181 25.861 68.426C26.2801 67.9734 26.6911 67.5169 27.1021 67.0583C27.459 66.6581 27.8319 66.272 28.1988 65.8798C28.5938 65.4574 28.9847 65.0331 29.3677 64.5987C29.7466 64.1703 30.1215 63.7359 30.5045 63.3115C30.8874 62.8891 31.2744 62.4708 31.6633 62.0525C32.0683 61.6161 32.4753 61.1816 32.8743 60.7392C33.6683 59.8583 34.4562 58.9754 35.2642 58.1085C35.6291 57.7184 35.996 57.3322 36.3589 56.94C36.778 56.4875 37.197 56.033 37.612 55.5765C37.999 55.1521 38.3799 54.7237 38.7649 54.2973C39.1318 53.8931 39.4987 53.4888 39.8676 53.0866C40.2566 52.6622 40.6495 52.2379 41.0305 51.8035C41.4274 51.3509 41.8224 50.8984 42.2154 50.4439C42.9893 49.5529 43.7772 48.6761 44.5852 47.8153C44.9582 47.417 45.3311 47.0208 45.702 46.6226C46.0769 46.2204 46.4478 45.8121 46.8188 45.4079C47.6247 44.527 48.4388 43.6561 49.2487 42.7792C50.0487 41.9164 50.8447 41.0496 51.6527 40.1949C52.0477 39.7765 52.4487 39.3662 52.8476 38.9519C53.2486 38.5376 53.6416 38.1153 54.0306 37.6909C54.4035 37.2847 54.7684 36.8683 55.1373 36.4561C55.5142 36.0377 55.9052 35.6295 56.2981 35.2252C57.1382 34.3604 57.9743 33.4936 58.8164 32.6328C59.6103 31.8182 60.4243 31.0198 61.1982 30.1872C61.9862 29.3405 62.7501 28.4696 63.524 27.6088C64.2939 26.7541 65.0878 25.9214 65.8698 25.0787C66.2447 24.6765 66.6196 24.2743 67.0046 23.8821C67.1108 23.7735 67.2171 23.6689 67.3254 23.5623C66.9384 24.0249 66.5675 24.5035 66.2006 24.9822C65.8136 25.487 65.4327 25.9938 65.0538 26.5027C64.6929 26.9874 64.33 27.47 63.9631 27.9507C63.5681 28.4656 63.1811 28.9845 62.8042 29.5134C62.5676 29.8453 62.323 30.1731 62.0764 30.4969C61.8178 30.8227 61.5551 31.1465 61.3065 31.4784C61.0579 31.8082 60.8113 32.14 60.5667 32.4759C60.0975 33.1175 59.6184 33.749 59.1332 34.3785C58.7622 34.8592 58.3913 35.3398 58.0204 35.8185C57.6475 36.2992 57.2665 36.7738 56.8856 37.2485C56.0596 38.2762 55.2415 39.3099 54.4496 40.3658C53.6857 41.3835 52.9198 42.3991 52.1459 43.4087C51.39 44.3962 50.6522 45.3938 49.9264 46.4014C49.6157 46.8318 49.3089 47.2642 48.9981 47.6946C48.6593 48.1632 48.3185 48.6258 47.9736 49.0884C47.5826 49.5952 47.1897 50.1 46.7967 50.6048C46.4278 51.0794 46.0589 51.5541 45.698 52.0327C44.906 53.0866 44.1201 54.1425 43.3321 55.1983C42.9953 55.6489 42.6565 56.0994 42.3277 56.5579C41.9247 57.1231 41.5257 57.6882 41.1307 58.2594C40.445 59.2509 39.7633 60.2444 39.0796 61.238C38.3278 62.328 37.5819 63.4241 36.8241 64.5122C36.1163 65.5278 35.4066 66.5435 34.7089 67.5672C34.366 68.072 34.0272 68.5768 33.6783 69.0776C33.3214 69.5884 32.9525 70.0912 32.5896 70.596C31.8859 71.5775 31.1781 72.5549 30.5065 73.5585C30.2559 73.9326 30.0032 74.3027 29.7486 74.6747C29.6764 74.7813 29.5982 74.8839 29.5201 74.9845C29.504 74.9845 29.486 74.9804 29.4699 74.9804C29.3155 74.9804 29.1652 75.0569 29.079 75.2017C29.079 75.2017 29.079 75.2057 29.075 75.2077C29.0449 75.2198 29.0148 75.2338 28.9847 75.2499C28.9126 75.2881 28.8664 75.3565 28.8243 75.4229C28.8043 75.4692 28.7842 75.5154 28.7662 75.5617C28.7542 75.5959 28.7441 75.628 28.7361 75.6622C28.7201 75.7206 28.7121 75.7809 28.7 75.8412C28.684 75.9357 28.6659 76.0283 28.6479 76.1228C28.6299 76.2153 28.6319 76.3018 28.682 76.3863C28.7261 76.4627 28.8003 76.519 28.8865 76.5431C28.9025 76.5472 28.9186 76.5512 28.9346 76.5532C28.9386 76.7121 28.9386 76.8689 28.9386 77.0278C28.9386 77.4502 28.9326 77.8725 28.9266 78.2969C28.9166 79.1154 28.9146 79.936 28.9206 80.7546C28.9266 81.5932 28.9386 82.4339 28.9627 83.2726C28.9647 83.343 28.9667 83.4134 28.9707 83.4837C28.7301 82.808 28.4534 82.1443 28.1527 81.4947L28.1587 81.4987ZM33.4919 81.9713C33.2332 82.2811 32.9886 82.6008 32.732 82.9106C32.4814 83.2163 32.2187 83.5119 31.948 83.7995C31.539 84.2319 31.134 84.6663 30.7371 85.1108C30.5426 85.33 30.3481 85.5513 30.1556 85.7725C30.0674 85.873 29.9792 85.9736 29.891 86.0742C29.889 86.0782 29.885 86.0802 29.8829 86.0842C29.8829 86.0681 29.8829 86.052 29.8829 86.038C29.887 85.8389 29.891 85.6398 29.893 85.4406C29.899 85.0364 29.903 84.6342 29.905 84.2299C29.909 83.4093 29.921 82.5888 29.9311 81.7682C29.9411 80.9476 29.9471 80.1251 29.9411 79.3045C29.9351 78.4437 29.917 77.5849 29.8609 76.7261C29.8489 76.5331 29.8268 76.34 29.7987 76.1489C29.8068 76.153 29.8148 76.159 29.8228 76.163C29.9872 76.2676 30.1456 76.3802 30.304 76.4949C30.9416 76.9936 31.5611 77.5186 32.1666 78.0576C32.4573 78.317 32.738 78.5865 33.0307 78.8439C33.2072 78.9988 33.3836 79.1516 33.564 79.3005C33.7445 79.4513 33.939 79.5901 34.1254 79.7329C34.3159 79.8777 34.5124 80.0124 34.7048 80.1552C34.761 80.1955 34.8131 80.2377 34.8693 80.2799C34.4201 80.8531 33.955 81.4122 33.4899 81.9734L33.4919 81.9713ZM70.82 21.8628C70.7378 22.1243 70.6556 22.3858 70.5734 22.6452C70.4731 22.963 70.3589 23.2767 70.2486 23.5905C70.1403 23.9002 70.0381 24.2119 69.9198 24.5196C69.6471 25.2235 69.3764 25.9275 69.0998 26.6294C68.5404 28.0392 67.983 29.4511 67.4296 30.8649C67.163 31.5467 66.8963 32.2285 66.6256 32.9083C66.351 33.5961 66.0823 34.286 65.8016 34.9698C65.4768 35.7602 65.152 36.5526 64.8292 37.343C64.5104 38.1233 64.2017 38.9077 63.8869 39.69C63.6303 40.3296 63.3957 40.9772 63.1551 41.6228C62.9265 42.2362 62.6979 42.8476 62.4814 43.4651C62.2107 44.2374 61.9341 45.0056 61.6694 45.7799C61.3827 46.6166 61.098 47.4533 60.8113 48.2899C60.3381 49.6756 59.873 51.0653 59.4078 52.4531C59.1632 53.1791 58.9186 53.9052 58.674 54.6312C58.4835 55.1943 58.2971 55.7595 58.1006 56.3206C57.7718 57.2558 57.445 58.191 57.1162 59.1262C56.9077 59.7175 56.6791 60.3007 56.4565 60.888C56.2139 61.5296 55.9794 62.1752 55.7267 62.8127C55.3739 63.7017 55.019 64.5906 54.6661 65.4796C54.4396 66.0487 54.203 66.6139 53.9704 67.179C53.6937 67.8467 53.4211 68.5145 53.1424 69.1802C52.7775 70.051 52.4126 70.9239 52.0497 71.7947C51.791 72.4121 51.5404 73.0336 51.2878 73.653C51.0332 74.2765 50.7785 74.898 50.5319 75.5235C50.2552 76.2234 49.9786 76.9212 49.7019 77.6191C49.349 78.5061 48.9981 79.391 48.6392 80.2739C48.2964 81.1146 47.9495 81.9512 47.6007 82.7879C47.4503 83.1358 47.2999 83.4817 47.1516 83.8297C47.0172 84.1394 46.8749 84.4431 46.7345 84.7508C46.4799 85.3079 46.2032 85.8549 45.9666 86.4201C45.8804 86.3738 45.7942 86.3256 45.708 86.2793C45.5356 86.1848 45.3591 86.0983 45.1867 86.0058C45.0163 85.9133 44.8499 85.8167 44.6835 85.7162C43.9797 85.2958 43.2941 84.8433 42.6003 84.4049C42.2715 84.1977 41.9427 83.9886 41.6239 83.7653C41.2791 83.524 40.9362 83.2766 40.5934 83.0312C39.9157 82.5465 39.2461 82.0498 38.5684 81.5671C37.8727 81.0703 37.1689 80.5876 36.4852 80.0768C36.1604 79.8334 35.8417 79.582 35.5088 79.3508C35.1439 79.0973 34.777 78.85 34.4161 78.5925C34.2838 78.498 34.1555 78.4015 34.0292 78.3029C33.3856 77.778 32.7661 77.2269 32.1104 76.7181C31.7596 76.4466 31.4127 76.165 31.0538 75.9016C30.8714 75.7688 30.6889 75.6381 30.5025 75.5094C30.4042 75.443 30.304 75.3807 30.2017 75.3203C30.3822 75.085 30.5466 74.8397 30.715 74.5943C31.0438 74.1176 31.3626 73.6329 31.6974 73.1603C32.4373 72.1185 33.1991 71.0928 33.961 70.0671C34.6768 69.1017 35.3484 68.1042 36.0361 67.1207C36.7459 66.105 37.4737 65.0994 38.1814 64.0818C38.9353 62.9998 39.6892 61.9177 40.441 60.8337C40.8079 60.3068 41.1728 59.7798 41.5377 59.2529C41.8585 58.7903 42.1773 58.3237 42.5081 57.8652C42.8229 57.4288 43.1337 56.9883 43.4565 56.5579C43.8214 56.0712 44.1863 55.5845 44.5512 55.0978C45.2028 54.233 45.8504 53.3682 46.502 52.5034C46.8468 52.0549 47.1917 51.6064 47.5405 51.1599C47.745 50.8984 47.9495 50.637 48.152 50.3755C48.3646 50.102 48.5811 49.8325 48.7876 49.557C48.9781 49.3035 49.1726 49.0521 49.357 48.7967C49.5756 48.495 49.7941 48.1934 50.0126 47.8937C50.3635 47.409 50.7124 46.9223 51.0632 46.4376C51.6547 45.6231 52.2602 44.8186 52.8737 44.0201C53.7779 42.8496 54.6761 41.6751 55.5704 40.4965C55.9312 40.034 56.2901 39.5694 56.659 39.1148C57.0761 38.598 57.4971 38.0851 57.9182 37.5703C58.7061 36.6089 59.466 35.6274 60.2299 34.648C60.9015 33.7872 61.5451 32.9063 62.2027 32.0355C62.5837 31.5508 62.9766 31.0721 63.3395 30.5713C63.7185 30.0484 64.0894 29.5195 64.4783 29.0026C64.8372 28.5239 65.2041 28.0513 65.563 27.5706C65.954 27.0457 66.3389 26.5167 66.7319 25.9938C67.0186 25.6077 67.3093 25.2256 67.6021 24.8434C67.7785 24.6182 67.9549 24.3929 68.1394 24.1717C68.3319 23.9404 68.5323 23.7172 68.7328 23.4939C69.1398 23.0374 69.5569 22.5909 69.9619 22.1344C70.1624 21.9071 70.3549 21.6758 70.5473 21.4405C70.7358 21.2112 70.9323 20.986 71.1248 20.7587C71.1388 20.7426 71.1508 20.7265 71.1648 20.7104C71.0907 20.9779 71.0105 21.2434 70.9343 21.5089C70.9002 21.6295 70.8601 21.7462 70.824 21.8649L70.82 21.8628Z" fill="#8E8E93"/>
<path d="M10.9596 63.8909C10.9275 63.8668 10.8955 63.8407 10.8634 63.8145C10.8634 63.8145 10.8614 63.8145 10.8594 63.8125C10.8935 63.8386 10.9275 63.8648 10.9596 63.8909Z" fill="#8E8E93"/>
<path d="M28.752 90.9771C28.7593 91.461 28.8036 91.9426 28.88 92.4216C28.971 92.9821 29.1507 93.5229 29.3748 94.0439C29.5495 94.4514 29.7785 94.8341 30.0172 95.2095C30.1329 95.3922 30.2782 95.5626 30.4111 95.7354C30.5219 95.8811 30.645 96.0145 30.768 96.1503C31.029 96.4342 31.3047 96.7083 31.6075 96.9503C31.4278 96.6194 31.2678 96.2762 31.1078 95.9354C31.0314 95.7749 30.9502 95.6194 30.8813 95.4564C30.7976 95.2613 30.709 95.0687 30.6179 94.8761C30.4677 94.5131 30.3028 94.16 30.1329 93.8094C29.904 93.3303 29.6455 92.8636 29.4141 92.3846C29.1901 91.9179 28.9735 91.4487 28.752 90.982V90.9771Z" fill="#8E8E93"/>
<path d="M34.8345 101.751C35.2259 102.309 35.6444 102.847 36.085 103.366C36.4124 103.754 36.7718 104.117 37.1361 104.467C37.306 104.63 37.4931 104.776 37.6752 104.922C37.8697 105.075 38.0642 105.23 38.2685 105.371C38.6993 105.677 39.1424 105.966 39.5953 106.24C39.935 106.445 40.2747 106.645 40.6169 106.843C39.9818 106.129 39.3418 105.42 38.655 104.759C37.978 104.104 37.2568 103.499 36.4986 102.941C35.9595 102.524 35.4007 102.129 34.832 101.753L34.8345 101.751ZM36.5281 102.958C36.5281 102.958 36.5503 102.976 36.5601 102.983C36.5503 102.976 36.5404 102.966 36.5281 102.958Z" fill="#8E8E93"/>
<path d="M47.0498 109.899C47.6135 110.334 48.2019 110.729 48.8271 111.07C49.2333 111.292 49.6567 111.495 50.0973 111.643C50.5724 111.803 51.0574 111.922 51.5497 112.016C52.0174 112.107 52.4925 112.176 52.9701 112.206C52.5688 111.971 52.1774 111.714 51.7786 111.475C51.3405 111.216 50.8924 110.974 50.4272 110.769C49.3613 110.297 48.2043 110.043 47.0523 109.897L47.0498 109.899Z" fill="#8E8E93"/>
<path d="M63.636 112.416C62.6193 112.549 61.6002 112.502 60.5811 112.473C61.1522 112.727 61.743 112.944 62.3559 113.065C62.6415 113.122 62.9344 113.154 63.2224 113.167C63.5252 113.179 63.828 113.144 64.1283 113.102C64.3917 113.065 64.6502 113.006 64.9086 112.947C65.7259 112.757 66.526 112.488 67.3211 112.221C67.0577 112.209 66.7943 112.201 66.5309 112.201C65.5634 112.201 64.5985 112.288 63.6384 112.418L63.636 112.416Z" fill="#8E8E93"/>
<path d="M78.8494 106.299C78.4186 106.581 77.9927 106.87 77.5841 107.183C77.589 107.181 77.5915 107.178 77.5964 107.173C77.4044 107.322 77.2173 107.475 77.0302 107.633C76.8456 107.791 76.6782 107.966 76.5083 108.139C76.1514 108.504 75.8142 108.904 75.504 109.309C75.5089 109.304 75.5138 109.297 75.5163 109.292C75.4474 109.379 75.3809 109.467 75.3145 109.556C76.112 109.213 76.8678 108.769 77.4856 108.151C77.7515 107.885 77.9829 107.578 78.2069 107.275C78.4383 106.961 78.65 106.633 78.8518 106.299H78.8494Z" fill="#8E8E93"/>
<path d="M83.7872 96.4048C83.7159 96.7579 83.6395 97.1085 83.5805 97.4641C83.5238 97.8049 83.482 98.1481 83.4475 98.4914C83.4106 98.8766 83.3958 99.2618 83.3958 99.647C83.3958 100.114 83.4205 100.585 83.3712 101.05C83.3466 101.215 83.3097 101.366 83.2457 101.519C83.1521 101.721 83.0438 101.914 82.9404 102.109C83.0094 102.008 83.0758 101.904 83.1448 101.803C83.2457 101.65 83.3589 101.494 83.4254 101.321C83.5706 100.948 83.6248 100.553 83.6814 100.161C83.738 99.768 83.7848 99.3729 83.8217 98.9778C83.9029 98.1259 83.9423 97.2493 83.7872 96.4048Z" fill="#8E8E93"/>
<path d="M77.2754 88.0855C77.2926 88.0978 77.3099 88.1102 77.3271 88.1225C77.3615 88.1472 77.3886 88.1769 77.4132 88.2114C77.4108 88.209 77.4083 88.204 77.4059 88.1991C77.5757 88.4534 77.7037 88.7349 77.849 89.0016C77.94 89.172 78.0385 89.3374 78.1345 89.5029C78.3585 89.8832 78.6071 90.2486 78.8878 90.5894C78.873 90.5721 78.8607 90.5524 78.8459 90.5351C79.4663 91.3302 80.2589 91.9969 81.0934 92.5574C80.9014 91.9846 80.6651 91.4339 80.3697 90.9079C80.1604 90.5301 79.9241 90.1375 79.6337 89.814C79.3678 89.5177 79.0724 89.2387 78.7598 88.9917C78.5628 88.8362 78.3634 88.6855 78.1591 88.5374C78.0434 88.4534 77.9228 88.3744 77.8022 88.2979C77.6397 88.1941 77.4748 88.0954 77.2778 88.0806L77.2754 88.0855Z" fill="#8E8E93"/>
<path d="M70.4891 87.325C70.174 87.4263 69.8835 87.6065 69.6201 87.8041C69.2435 88.0856 68.9432 88.4387 68.6626 88.8116C68.5296 88.9894 68.4115 89.177 68.3105 89.3746C68.5222 89.2165 68.7512 89.0881 68.9826 88.9622C69.5488 88.6535 70.1346 88.3942 70.7254 88.1374C71.0651 87.9942 71.4147 87.851 71.7766 87.7917C72.1729 87.7547 72.5692 87.7843 72.9655 87.7917C72.7415 87.6386 72.5175 87.488 72.2713 87.3769C71.9956 87.2534 71.7273 87.1793 71.427 87.167C71.4048 87.167 71.3827 87.167 71.3605 87.167C71.0676 87.167 70.7648 87.2337 70.4891 87.3226V87.325Z" fill="#8E8E93"/>
<path d="M65.0912 94.812C64.7171 95.4442 64.3946 96.1035 64.1337 96.7899C64.0229 97.0813 63.9613 97.3925 63.9195 97.7011C63.8678 98.0715 63.858 98.4345 63.9195 98.8049C63.9589 99.0444 64.0623 99.2691 64.1657 99.4889C64.2395 99.6469 64.3232 99.7951 64.4217 99.9383C64.3921 99.8173 64.37 99.6963 64.3503 99.5729C64.3429 99.4864 64.3331 99.3975 64.3232 99.3111C64.2986 99.0839 64.3011 98.8642 64.3281 98.6395C64.37 98.3777 64.4389 98.1234 64.5078 97.8666C64.5792 97.6023 64.6481 97.3332 64.7097 97.0665C64.754 96.8764 64.8008 96.6862 64.8426 96.4961C64.9583 95.943 65.0395 95.3775 65.0962 94.8145L65.0912 94.812Z" fill="#8E8E93"/>
<path d="M66.5381 106.159C66.6046 106.593 66.7006 107.023 66.8187 107.448C66.8532 107.576 66.9024 107.7 66.9467 107.823C67.0083 107.996 67.0698 108.176 67.1535 108.339C67.4661 108.947 67.8649 109.514 68.3425 110.003C68.2563 109.831 68.18 109.653 68.1037 109.475C68.0569 109.361 68.0102 109.25 67.9609 109.137C67.9018 108.993 67.8428 108.853 67.7812 108.712C67.7074 108.517 67.6261 108.324 67.5424 108.134C67.4267 107.85 67.2864 107.581 67.156 107.307C66.9689 106.914 66.7572 106.536 66.5405 106.159H66.5381Z" fill="#8E8E93"/>
<path d="M74.8164 117.816C75.2152 118.666 75.7026 119.498 76.3476 120.182C76.8719 120.738 77.4799 121.207 78.0879 121.669C77.7384 121.002 77.3815 120.338 76.9334 119.733C76.3623 118.965 75.6091 118.345 74.8189 117.819L74.8164 117.816Z" fill="#8E8E93"/>
<path d="M84.0332 127.703C84.7348 128.674 85.5151 129.622 86.4259 130.402C87.2235 131.086 88.0974 131.661 88.9688 132.244C88.3928 131.4 87.7355 130.597 87.0118 129.876C86.6746 129.54 86.3053 129.246 85.9311 128.958C85.328 128.496 84.6905 128.083 84.0332 127.703Z" fill="#8E8E93"/>
<path d="M111.587 148.068C111.866 148.651 112.36 149.09 112.848 149.495C113.101 149.707 113.357 149.912 113.618 150.115C114.049 150.446 114.495 150.757 114.95 151.051C115.839 151.621 116.767 152.132 117.678 152.663C117.798 152.735 117.919 152.806 118.039 152.881C117.362 152.108 116.644 151.359 115.844 150.713C115.583 150.503 115.319 150.295 115.046 150.1C114.864 149.969 114.669 149.856 114.477 149.742C114.197 149.574 113.911 149.414 113.626 149.258C113.143 148.999 112.639 148.774 112.163 148.498C112.013 148.409 111.873 148.307 111.738 148.201C111.686 148.159 111.634 148.117 111.585 148.07L111.587 148.068ZM111.733 148.191C111.733 148.191 111.735 148.194 111.738 148.196C111.738 148.196 111.735 148.194 111.733 148.191Z" fill="#8E8E93"/>
</svg>
