<svg width="28" height="28" viewBox="0 0 28 28" fill="none" xmlns="http://www.w3.org/2000/svg">
<path d="M13.3785 26.9765C12.2929 26.9228 11.2217 26.7365 10.1827 26.4212C10.0609 26.3746 9.94264 26.3352 9.81725 26.2958C6.34917 25.1529 3.40775 22.4014 1.98899 18.9763C1.40859 17.579 1.07898 16.0886 1.01449 14.5767C1.00732 14.4047 1.00016 12.0975 1.00016 8.29977C1.00016 1.76847 0.992992 2.23064 1.07539 1.97626C1.24737 1.42452 1.72745 1.05192 2.32577 1.00535C2.78077 0.969519 3.0853 1.10208 4.06339 1.7613C4.67245 2.17331 5.27435 2.60682 6.00881 3.15856C6.34917 3.41652 6.39216 3.4416 6.41724 3.42727L6.79701 3.17648C7.42398 2.76446 8.0008 2.44202 8.63853 2.15182C9.5772 1.72547 10.566 1.41736 11.5799 1.22747C12.3072 1.08775 13.0489 1.01609 13.7905 1.01251C15.0265 0.994598 16.0404 1.11283 17.2048 1.40303C21.0491 2.3632 24.2879 5.09682 25.9001 8.74761C26.4339 9.95141 26.8137 11.3809 26.9248 12.5632C26.9606 12.9609 26.9678 13.029 26.9821 13.226C26.9893 13.3407 27 13.6667 27 13.9497C27 14.7988 26.9283 15.6515 26.8173 16.1853C26.7994 16.2785 26.7815 16.3716 26.7671 16.4684C26.7062 16.8768 26.5342 17.536 26.3336 18.1308C26.1115 18.7936 25.9359 19.2128 25.592 19.9006C24.879 21.3051 23.9153 22.5662 22.7509 23.6231C22.2744 24.053 21.8516 24.3862 21.3859 24.7086C20.6837 25.1923 19.9707 25.5864 19.1789 25.9375C18.5304 26.2241 17.6204 26.5215 16.9039 26.6791C16.4811 26.7759 16.0584 26.8475 15.6284 26.8977C14.8832 26.9908 14.1308 27.0195 13.3785 26.9873V26.9765ZM12.7193 20.5634C13.0381 20.4989 13.4537 20.3377 13.6543 20.198C13.812 20.0905 14.1165 19.7896 15.89 18.0161C16.5205 17.3784 17.1583 16.7443 17.7996 16.1173C17.8175 16.1173 19.6268 14.308 19.6268 14.2865C19.6268 14.265 21.4038 12.5023 21.4253 12.5023C21.4468 12.5023 21.4934 12.4522 21.5543 12.3877C22.0594 11.8503 22.2923 11.3523 22.3281 10.7109C22.3568 10.2416 22.2636 9.7257 22.0917 9.414C21.848 8.95183 21.479 8.56489 21.0276 8.30336C20.7231 8.1278 20.4723 8.05256 20.0674 8.00957C19.7342 7.97733 19.3222 8.00957 19.0392 8.09197C18.7776 8.16721 18.3871 8.38934 18.1148 8.61147C18.0683 8.65088 16.7283 9.98007 15.1376 11.5708L12.2428 14.4621L11.0605 13.2798C10.412 12.6313 9.84591 12.0724 9.81008 12.0437C9.39448 11.7177 8.88932 11.5242 8.35908 11.492C7.92198 11.4776 7.37383 11.5887 7.03347 11.7643C6.76835 11.9183 6.5283 12.1118 6.32051 12.3339C6.20228 12.4629 6.00881 12.7209 6.00523 12.7495C6.00523 12.7818 5.99448 12.7961 5.93357 12.9215C5.78668 13.2296 5.70428 13.5664 5.68995 13.9067C5.6792 14.1539 5.6792 14.1934 5.71144 14.437C5.7616 14.8203 5.97298 15.2825 6.26318 15.6444C6.31692 15.7124 7.31292 16.7192 8.47731 17.88C10.111 19.5101 10.6234 20.0153 10.7237 20.0869C11.0784 20.3485 11.4617 20.5061 11.9167 20.5814C12.1138 20.6136 12.4577 20.5993 12.7121 20.5491L12.7193 20.5634Z" stroke="#8E8E93" stroke-width="1.5" stroke-miterlimit="10"/>
</svg>
