<svg width="32" height="32" viewBox="0 0 32 32" fill="none" xmlns="http://www.w3.org/2000/svg">
<path d="M12.2266 20.7733C11.9733 20.7733 11.72 20.68 11.52 20.48C11.1333 20.0933 11.1333 19.4533 11.52 19.0666L19.0666 11.52C19.4533 11.1333 20.0933 11.1333 20.48 11.52C20.8666 11.9066 20.8666 12.5466 20.48 12.9333L12.9333 20.48C12.7466 20.68 12.48 20.7733 12.2266 20.7733Z" fill="#8E8E93"/>
<path d="M19.7733 20.7733C19.52 20.7733 19.2666 20.68 19.0666 20.48L11.52 12.9333C11.1333 12.5466 11.1333 11.9066 11.52 11.52C11.9066 11.1333 12.5466 11.1333 12.9333 11.52L20.48 19.0666C20.8666 19.4533 20.8666 20.0933 20.48 20.48C20.28 20.68 20.0266 20.7733 19.7733 20.7733Z" fill="#8E8E93"/>
<path d="M19.9998 30.3334H11.9998C4.75984 30.3334 1.6665 27.24 1.6665 20V12C1.6665 4.76002 4.75984 1.66669 11.9998 1.66669H19.9998C27.2398 1.66669 30.3332 4.76002 30.3332 12V20C30.3332 27.24 27.2398 30.3334 19.9998 30.3334ZM11.9998 3.66669C5.85317 3.66669 3.6665 5.85335 3.6665 12V20C3.6665 26.1467 5.85317 28.3334 11.9998 28.3334H19.9998C26.1465 28.3334 28.3332 26.1467 28.3332 20V12C28.3332 5.85335 26.1465 3.66669 19.9998 3.66669H11.9998Z" fill="#8E8E93"/>
</svg>
