<svg width="25" height="24" viewBox="0 0 25 24" fill="none" xmlns="http://www.w3.org/2000/svg">
<path d="M21.5401 13.28L20.6201 12.38L12.8701 20.12L13.8001 21.05C14.5801 21.83 15.3901 22.22 16.1901 22.22C16.9901 22.22 17.8001 21.83 18.5801 21.05L21.5401 18.09C23.1301 16.49 23.1301 14.88 21.5401 13.28Z" fill="#F28C28"/>
<path d="M11.1898 2.93C9.61976 1.36 7.96977 1.36 6.39977 2.93L3.42977 5.89C1.86977 7.46 1.86977 9.11 3.42977 10.68L4.34977 11.6L12.0998 3.85L11.1898 2.93Z" fill="#F28C28"/>
<path d="M22.3098 3.94C20.9998 7.21 18.0098 11.48 15.1598 14.27C14.7498 11.69 12.6898 9.67 10.0898 9.31C12.8898 6.45 17.1898 3.42 20.4698 2.1C21.0498 1.88 21.6298 2.05 21.9898 2.41C22.3698 2.79 22.5498 3.36 22.3098 3.94Z" fill="#F28C28"/>
<path d="M14.2801 15.09C14.0801 15.26 13.8801 15.43 13.6801 15.59L11.8901 17.02C11.8901 16.99 11.8801 16.95 11.8801 16.91C11.7401 15.84 11.2401 14.85 10.4301 14.04C9.61012 13.22 8.59012 12.72 7.47012 12.58C7.44012 12.58 7.40012 12.57 7.37012 12.57L8.82012 10.74C8.96012 10.56 9.11012 10.39 9.27012 10.21L9.95012 10.3C12.1001 10.6 13.8301 12.29 14.1701 14.43L14.2801 15.09Z" fill="#F28C28"/>
<path d="M10.9298 17.62C10.9298 18.72 10.5098 19.77 9.70976 20.56C9.09976 21.18 8.27977 21.6 7.27977 21.72L4.82976 21.99C3.48976 22.14 2.33976 20.99 2.48976 19.64L2.75976 17.18C2.99976 14.99 4.82976 13.59 6.76976 13.55C6.95976 13.54 7.16976 13.55 7.36976 13.57C8.21976 13.68 9.03976 14.07 9.72976 14.75C10.3998 15.42 10.7798 16.21 10.8898 17.04C10.9098 17.24 10.9298 17.43 10.9298 17.62Z" fill="#F28C28"/>
</svg>
