<svg width="25" height="24" viewBox="0 0 25 24" fill="none" xmlns="http://www.w3.org/2000/svg">
<path d="M15.35 3.94999V7.74999H13.85V3.94999C13.85 3.67999 13.61 3.54999 13.45 3.54999C13.4 3.54999 13.35 3.55999 13.3 3.57999L5.37 6.56999C4.84 6.76999 4.5 7.26999 4.5 7.83999V8.50999C3.59 9.18999 3 10.28 3 11.51V7.83999C3 6.64999 3.73 5.58999 4.84 5.16999L12.78 2.16999C13 2.08999 13.23 2.04999 13.45 2.04999C14.45 2.04999 15.35 2.85999 15.35 3.94999Z" fill="#36A8D9"/>
<path d="M21.9997 14.5V15.5C21.9997 15.77 21.7897 15.99 21.5097 16H20.0497C19.5197 16 19.0397 15.61 18.9997 15.09C18.9697 14.78 19.0897 14.49 19.2897 14.29C19.4697 14.1 19.7197 14 19.9897 14H21.4997C21.7897 14.01 21.9997 14.23 21.9997 14.5Z" fill="#36A8D9"/>
<path d="M19.98 12.95H21C21.55 12.95 22 12.5 22 11.95V11.51C22 9.44 20.31 7.75 18.24 7.75H6.76C5.91 7.75 5.13 8.03 4.5 8.51C3.59 9.19 3 10.28 3 11.51V18.24C3 20.31 4.69 22 6.76 22H18.24C20.31 22 22 20.31 22 18.24V18.05C22 17.5 21.55 17.05 21 17.05H20.13C19.17 17.05 18.25 16.46 18 15.53C17.79 14.77 18.04 14.04 18.54 13.55C18.91 13.17 19.42 12.95 19.98 12.95ZM14.5 12.75H7.5C7.09 12.75 6.75 12.41 6.75 12C6.75 11.59 7.09 11.25 7.5 11.25H14.5C14.91 11.25 15.25 11.59 15.25 12C15.25 12.41 14.91 12.75 14.5 12.75Z" fill="#36A8D9"/>
</svg>
