<svg width="32" height="32" viewBox="0 0 32 32" fill="none" xmlns="http://www.w3.org/2000/svg">
<path d="M16.0003 21.3332C17.4148 21.3332 18.7714 20.7713 19.7716 19.7711C20.7718 18.7709 21.3337 17.4143 21.3337 15.9998C21.3337 14.5853 20.7718 13.2288 19.7716 12.2286C18.7714 11.2284 17.4148 10.6665 16.0003 10.6665C14.5858 10.6665 13.2293 11.2284 12.2291 12.2286C11.2289 13.2288 10.667 14.5853 10.667 15.9998C10.667 17.4143 11.2289 18.7709 12.2291 19.7711C13.2293 20.7713 14.5858 21.3332 16.0003 21.3332Z" stroke="#8E8E93" stroke-width="1.5" stroke-linecap="round" stroke-linejoin="round"/>
<path d="M4 21.3333V10.6667C4 8.89856 4.70238 7.20286 5.95262 5.95262C7.20286 4.70238 8.89856 4 10.6667 4H21.3333C23.1014 4 24.7971 4.70238 26.0474 5.95262C27.2976 7.20286 28 8.89856 28 10.6667V21.3333C28 23.1014 27.2976 24.7971 26.0474 26.0474C24.7971 27.2976 23.1014 28 21.3333 28H10.6667C8.89856 28 7.20286 27.2976 5.95262 26.0474C4.70238 24.7971 4 23.1014 4 21.3333Z" stroke="#8E8E93" stroke-width="1.5"/>
<path d="M23.333 8.68019L23.3463 8.66553" stroke="#8E8E93" stroke-width="1.5" stroke-linecap="round" stroke-linejoin="round"/>
</svg>
