<svg width="25" height="24" viewBox="0 0 25 24" fill="none" xmlns="http://www.w3.org/2000/svg">
<path fill-rule="evenodd" clip-rule="evenodd" d="M21.931 9.72949C21.544 8.08349 19.826 7.99849 18.445 7.92949C17.576 7.88549 16.677 7.84149 16.301 7.45249C15.918 7.05649 15.619 6.29749 15.328 5.56349C14.761 4.12749 14.118 2.50049 12.499 2.50049C10.881 2.50049 10.239 4.12749 9.67104 5.56349C9.38104 6.29749 9.08104 7.05649 8.69904 7.45249C8.32204 7.84149 7.42304 7.88549 6.55404 7.92949C5.17304 7.99849 3.45504 8.08349 3.06804 9.72949C2.70104 11.2915 3.84804 12.2365 4.86004 13.0705C5.55204 13.6405 6.20604 14.1805 6.35104 14.8405C6.49204 15.4815 6.28004 16.3095 6.07504 17.1115C5.72304 18.4905 5.32304 20.0525 6.65804 21.0595C7.07504 21.3745 7.49804 21.4995 7.91604 21.4995C8.82104 21.4995 9.70304 20.9155 10.458 20.4155C11.157 19.9535 11.88 19.4745 12.499 19.4745C13.118 19.4745 13.842 19.9535 14.54 20.4155C15.645 21.1465 17.019 22.0545 18.342 21.0595C19.677 20.0525 19.277 18.4895 18.924 17.1095C18.719 16.3085 18.508 15.4805 18.648 14.8405C18.793 14.1805 19.447 13.6415 20.139 13.0705C21.151 12.2365 22.298 11.2915 21.931 9.72949Z" fill="#DCD213"/>
</svg>
