<svg width="32" height="32" viewBox="0 0 32 32" fill="none" xmlns="http://www.w3.org/2000/svg">
<path d="M29.2607 3.47653C28.9733 3.23797 28.6267 3.08174 28.2576 3.02445C27.8885 2.96717 27.5108 3.01097 27.1647 3.1512L3.27535 12.7952C2.88931 12.9538 2.56065 13.2261 2.333 13.5759C2.10534 13.9258 1.98947 14.3365 2.00075 14.7537C2.01204 15.171 2.14995 15.5749 2.39617 15.9119C2.6424 16.2489 2.9853 16.503 3.37935 16.6405L8.53401 18.4299L11.3273 27.6645C11.3327 27.6832 11.35 27.6952 11.358 27.7125C11.3872 27.786 11.4291 27.8537 11.482 27.9125C11.5633 28.0023 11.6675 28.0682 11.7833 28.1032C11.7967 28.1085 11.806 28.1205 11.8193 28.1232H11.8273L11.8313 28.1245C11.9345 28.1466 12.0417 28.1411 12.142 28.1085L12.1753 28.1019C12.2716 28.0678 12.3587 28.0122 12.43 27.9392C12.438 27.9299 12.4513 27.9285 12.4593 27.9205L16.4767 23.4859L22.3393 28.0259C22.6953 28.3045 23.134 28.4552 23.586 28.4552C24.5647 28.4552 25.4087 27.7699 25.61 26.8139L29.9593 5.45653C30.0336 5.09396 30.0078 4.71803 29.8847 4.36901C29.7616 4.01998 29.5459 3.71102 29.2607 3.4752M12.7847 20.1832L11.842 24.7659L9.87535 18.2619L19.6287 13.1819L12.966 19.8459C12.8739 19.9382 12.8108 20.0554 12.7847 20.1832ZM24.3033 26.5459C24.2783 26.6668 24.2226 26.7792 24.1416 26.8724C24.0606 26.9655 23.9569 27.0363 23.8407 27.0779C23.7271 27.1209 23.6044 27.1339 23.4844 27.1157C23.3643 27.0974 23.251 27.0486 23.1553 26.9739L16.8047 22.0552C16.6719 21.9527 16.5054 21.904 16.3384 21.9189C16.1713 21.9337 16.016 22.0109 15.9033 22.1352L13.1073 25.2165L14.0487 20.6472L23.634 11.0605C23.7463 10.9479 23.8146 10.7989 23.8266 10.6403C23.8386 10.4818 23.7936 10.3241 23.6996 10.1959C23.6056 10.0676 23.4689 9.97715 23.3141 9.94085C23.1593 9.90454 22.9966 9.92476 22.8554 9.99786L9.03801 17.1952L3.81535 15.3792C3.6773 15.3328 3.55696 15.2448 3.4708 15.1274C3.38464 15.01 3.33686 14.8688 3.33401 14.7232C3.32697 14.576 3.36611 14.4303 3.44596 14.3065C3.52581 14.1826 3.64238 14.0869 3.77935 14.0325L27.6647 4.38853C27.7872 4.33714 27.9216 4.32065 28.0529 4.34088C28.1842 4.36112 28.3073 4.4173 28.4087 4.5032C28.5095 4.58422 28.5857 4.69184 28.6286 4.81389C28.6715 4.93594 28.6794 5.06756 28.6514 5.19386L24.3033 26.5459Z" fill="#8E8E93"/>
</svg>
