<svg width="24" height="24" viewBox="0 0 24 24" fill="none" xmlns="http://www.w3.org/2000/svg">
<path fill-rule="evenodd" clip-rule="evenodd" d="M23.0961 16.5689C22.3661 14.2829 20.4311 12.9749 17.7761 12.9749H17.7571C16.6751 12.9649 15.7081 13.1829 14.8921 13.5999C17.1691 14.3309 18.8571 15.9529 19.6341 18.2479C20.8671 18.0769 21.9391 17.6979 22.8871 17.1189L23.2001 16.9199L23.0961 16.5689Z" fill="#3563DE"/>
<path fill-rule="evenodd" clip-rule="evenodd" d="M16.04 11.2484C16.552 11.5334 17.131 11.6944 17.757 11.6944C19.72 11.6944 21.313 10.1004 21.313 8.13738C21.313 6.18438 19.72 4.59038 17.757 4.59038C17.368 4.59038 16.998 4.65738 16.647 4.77038C17.159 5.59638 17.453 6.57238 17.453 7.60638C17.453 9.01038 16.931 10.2814 16.04 11.2484Z" fill="#3563DE"/>
<path fill-rule="evenodd" clip-rule="evenodd" d="M9.05983 13.5815C8.26283 13.1835 7.32383 12.9745 6.26183 12.9745H6.22383C3.56883 12.9745 1.63383 14.2835 0.912828 16.5685L0.798828 16.9195L1.11183 17.1185C2.01283 17.6695 3.07583 18.0385 4.26083 18.2285C5.04783 15.9245 6.76483 14.2925 9.05983 13.5815Z" fill="#3563DE"/>
<path fill-rule="evenodd" clip-rule="evenodd" d="M6.24297 11.6941C6.86897 11.6941 7.44697 11.5331 7.95997 11.2481C7.06797 10.2811 6.54597 9.01007 6.54597 7.60607C6.54597 6.57307 6.83997 5.59607 7.35297 4.77107C7.00197 4.65707 6.63197 4.59007 6.24297 4.59007C4.27997 4.59007 2.68597 6.18407 2.68597 8.13707C2.68597 10.1011 4.27997 11.6941 6.24297 11.6941Z" fill="#3563DE"/>
<path fill-rule="evenodd" clip-rule="evenodd" d="M11.9655 14.1034C11.9495 14.1034 11.9345 14.1034 11.9195 14.1034C8.50552 14.1034 6.01652 15.7814 5.09052 18.7104L4.97852 19.0644L5.29552 19.2584C7.10352 20.3604 9.26352 20.8964 11.8985 20.8964H11.9835C14.6205 20.8964 16.7815 20.3604 18.5895 19.2584L18.9075 19.0644L18.7955 18.7104C17.8685 15.7814 15.3805 14.1034 11.9655 14.1034Z" fill="#3563DE"/>
<path fill-rule="evenodd" clip-rule="evenodd" d="M11.9997 12.1186C14.4857 12.1186 16.5077 10.0966 16.5077 7.61058C16.5077 5.12558 14.4857 3.10358 11.9997 3.10358C9.5137 3.10358 7.4917 5.12558 7.4917 7.61058C7.4917 10.0966 9.5137 12.1186 11.9997 12.1186Z" fill="#3563DE"/>
</svg>
