<svg width="34" height="25" viewBox="0 0 34 25" fill="none" xmlns="http://www.w3.org/2000/svg">
<path d="M32.3309 4.52C32.1492 3.83968 31.7924 3.21886 31.296 2.71941C30.7996 2.21997 30.181 1.85933 29.5018 1.67345C27.0073 1 17 1 17 1C17 1 6.99273 1 4.49818 1.67345C3.81899 1.85933 3.20038 2.21997 2.704 2.71941C2.20761 3.21886 1.85079 3.83968 1.66909 4.52C1 7.03345 1 12.2727 1 12.2727C1 12.2727 1 17.512 1.66909 20.0255C1.85057 20.706 2.20729 21.3272 2.70369 21.8269C3.20009 22.3266 3.81882 22.6875 4.49818 22.8735C6.99418 23.5455 17 23.5455 17 23.5455C17 23.5455 27.0073 23.5455 29.5018 22.8735C30.1812 22.6875 30.7999 22.3266 31.2963 21.8269C31.7927 21.3272 32.1494 20.706 32.3309 20.0255C33 17.5149 33 12.2727 33 12.2727C33 12.2727 33 7.03345 32.3309 4.52ZM13.7273 17.0305V7.51636L22.0909 12.2742L13.7273 17.0305Z" stroke="#8E8E93" stroke-width="1.5" stroke-miterlimit="10" stroke-linejoin="round"/>
</svg>
