<svg width="64" height="64" viewBox="0 0 64 64" fill="none" xmlns="http://www.w3.org/2000/svg">
<rect width="64" height="64" rx="12" fill="#F28C28" fill-opacity="0.2"/>
<path d="M39.18 32.8V40.94C39.18 41.66 39.1 42.34 38.92 42.96C38.18 45.9 35.74 47.74 32.38 47.74H26.94L20.9 51.76C20 52.38 18.8 51.72 18.8 50.64V47.74C16.76 47.74 15.06 47.06 13.88 45.88C12.68 44.68 12 42.98 12 40.94V32.8C12 29 14.36 26.38 18 26.04C18.26 26.02 18.52 26 18.8 26H32.38C36.46 26 39.18 28.72 39.18 32.8Z" fill="#F28C28"/>
<path d="M43.5 39.2C46.04 39.2 48.18 38.36 49.66 36.86C51.16 35.38 52 33.24 52 30.7V20.5C52 15.8 48.2 12 43.5 12H26.5C21.8 12 18 15.8 18 20.5V22C18 22.56 18.44 23 19 23H32.38C37.8 23 42.18 27.38 42.18 32.8V38.2C42.18 38.76 42.62 39.2 43.18 39.2H43.5Z" fill="#F28C28"/>
</svg>
